<svg id="Layer_1" data-name="Layer 1" xmlns="http://www.w3.org/2000/svg" viewBox="0 0 2703.81 1253.65"><defs><style>.cls-1{fill:#fff;}.cls-2{fill:#cba349;}</style></defs><rect class="cls-1" x="-28.8" y="-10.16" width="2761.41" height="1273.98"/><path d="M258.3,116.67c-.22,1.16-2.76,16,6.67,23.46A19.29,19.29,0,0,0,276.16,144c-.68-.9-5.36-7.16-3.42-14.44,2.08-7.79,10.31-11.37,16-11.78,13.65-1.07,22.34,14.95,22.93,16.11,6.3,12,3.85,26.74-2.88,36.8-10.11,15.06-29.82,19.58-45.21,15.74-23.25-5.82-31.37-29.51-32.77-33.89-7.17-22.71,2.21-49.35,23.61-67.75A217.16,217.16,0,0,0,164,119.59a212.89,212.89,0,0,0-39.29,34.52c-9.29-13.34-30.66-40-67.88-55.54a151.48,151.48,0,0,0-47-11.32C8.5,81.32,7.14,75.37,5.75,69.4c228.62-2.6,460.58-4.65,689.17-7.29L669,83.79q-182,1.83-364,3.69c-25.23,2.37-44,14.48-46.75,29.19"/><path d="M647,103.74l-35,27.39c-98.93,1.14-187,.8-286,1.94q-5.25-12.75-10.52-25.51c111-1.19,220.44-2.67,331.48-3.82"/><path d="M2002.47,564.29l695.59-4.69q-1.83,8.67-3.67,17.34a147.6,147.6,0,0,0-45.31,11.78c-35.75,15.75-56,41.9-64.73,55A205,205,0,0,0,2545.69,611a209.63,209.63,0,0,0-88.13-32.09c21.06,17.42,30.59,43.05,24.05,65.16-1.26,4.27-8.72,27.33-31.14,33.38-14.81,4-34,0-44-14.42-6.7-9.62-9.33-23.83-3.44-35.59.57-1.12,8.7-16.78,21.91-16,5.55.32,13.58,3.64,15.74,11.13,2,7-2.42,13.17-3.06,14a18.76,18.76,0,0,0,10.76-3.94c9-7.38,6.29-21.72,6.06-22.84-2.9-14.2-21.34-25.56-45.8-27.42l-419.8,3.43,13.66-21.54"/><path d="M2398.81,602q-4.87,12.44-9.75,24.89l-426.64,2.85,15.21-24.5L2398.81,602"/><path d="M1031.34,40.35c93.34,17.3,228.31,77.22,209,193.64-9.52,52-56.23,98.62-103.27,118.05,59.57,18.3,99.13,92.65,90.61,151.07-12.46,85.37-91.93,163.83-181.67,164.32q-87.09-.15-174.18-.23s-1.76-11.74,11.31-11.72,15.08-56.76,16-59.86c7.88-131.36,28.15-261,44.81-391.48-.49-3,4.65-56.62-8.27-59a4.6,4.6,0,0,0-.84-.08,21.12,21.12,0,0,1-3.41-.31c-10.07-1.87-7.67-11.36-7.67-11.36q71.91.93,143.83,2s.59,11.52-13.48,11.32-21.58,57.12-22.65,58.63c-6.29,49-13.58,97.94-20.9,146.83l6.28-1.45c65.37-9.38,124.48-49.89,135.48-117.8,14.64-91.26-45.46-134.95-122.31-149.2-81.15-15-181,2.77-231.15,32.13-55.51,34.34-133.23,156.68-46.11,195.55a104.72,104.72,0,0,0,23.67,7.29c40.83,7.56,88.24-7,112.29-43.37,38.13,45.59-10.93,100.42-51.45,119.37-28.76,12.43-68.17,14.65-100.3,8.69-5.07-.94-10-2.08-14.6-3.41-109.21-31.53-102.28-167.22-45.54-243.66,80.24-106,222.06-138.23,348.07-117.07,2.12.36,4.24.73,6.41,1.14M980.21,635.41A170.94,170.94,0,0,0,999.1,637c68.1-1.27,133.9-67.42,142.95-131.44,8.34-59-41.79-122.34-101.71-133.44a102.63,102.63,0,0,0-12.61-1.54,123.4,123.4,0,0,0-19.61-1.73c-12.86,88.77-23.69,176.91-27.91,266.55m53.15-606c-2.23-.41-4.42-.8-6.59-1.16C912.28,9.06,757.91,30.83,668,149.59,628.81,202.43,615,274.9,633.6,330c13.67,40.48,43.32,68.35,85.74,80.59,4.94,1.42,10.2,2.66,15.64,3.67,36.65,6.79,77.55,3.18,106.72-9.42l.3-.13c28.18-13.19,62.07-43.45,69.91-78.75,4.62-20.8-.45-40.78-14.66-57.77a11.09,11.09,0,0,0-6.48-3.79,10.57,10.57,0,0,0-2.64-.16,11,11,0,0,0-8.62,4.95c-19.86,30.06-61.41,45.93-101,38.58a93.63,93.63,0,0,1-21.17-6.5c-20.46-9.13-31.07-23.4-32.43-43.63-3-44.09,41.17-108.38,79.74-132.32C850.76,98.39,946.88,79.54,1028,94.59c59.94,11.1,128.26,43.81,113.39,136.55-10.48,64.7-66.06,97.33-117.54,107.15,7.06-47.3,13-88.19,18.48-130.56.38-1.45.76-3.44,1.34-6.53,5.77-30.48,10.14-40.35,12.58-43.48,8.37-.44,13.48-3.92,16.35-6.9a22.39,22.39,0,0,0,6.07-16,11.08,11.08,0,0,0-9-10.33,10.4,10.4,0,0,0-1.87-.19q-71.92-1-143.85-2a11.1,11.1,0,0,0-10.89,8.38c-.37,1.46-2,9.09,2.53,16.11,2.08,3.25,6.18,7.41,13.87,8.84q.87.17,1.8.27c1.45,4,3,14.59,1.81,41.87-.12,2.93-.2,4.66-.18,5.93-3.75,29.29-7.74,59-11.6,87.79-13.26,98.84-27,201-33.12,302.7-.23,1.42-.41,3.41-.73,7.1-2.57,29-5.55,39.52-7.51,43.27a21.15,21.15,0,0,0-14.24,7.06c-6,7-5.07,15.57-4.82,17.22a11.1,11.1,0,0,0,8.93,9.25,11.33,11.33,0,0,0,2,.19q87.09.08,174.18.23c45.46-.26,90.67-19.18,127.37-53.3,35.06-32.59,58.85-76.51,65.27-120.5,4.53-31-3.18-66.62-21.13-97.72-14.11-24.42-32.91-43.57-54.33-55.66,39.26-23.06,78.79-64.73,88.06-115.34,9.28-55.92-13.75-106-66.57-144.91-54.93-40.5-124.11-56.59-151.3-61.63m-15.71,351c3.21.31,5.9.71,8.32,1.1a10.46,10.46,0,0,0,1.11.12,92.17,92.17,0,0,1,11.24,1.37c55,10.2,100.11,69,92.76,121-8.69,61.53-72.85,120.74-132.06,121.91-2.22,0-4.67-.16-7.22-.39,4.65-88.13,15.46-172.65,25.85-245.11"/><path d="M1509.07,173s3.17,10.12-8.29,10.09-6.45,50.22-6.57,51.55c6.73,84.25,7.86,168.27,8.69,252.75,18.31-15.64,18.44-32.06,18.44-32.06,33.78,24.07,13.44,67.56-17.27,82.7.44,27.91.76,41.88,2,70,.53,1.29,4.29,48.93,16,51.1a5.29,5.29,0,0,0,.8.07,15,15,0,0,1,2.64.24c8.17,1.51,7.88,9.8,7.88,9.8q-59.25-.27-118.49-.51s-2-10,8.85-10c12.29,0,9.2-48.49,8.83-51.15-1.09-20.15-1.46-30.19-2-50.25-49.54,8.65-139.72,15.79-159.32,64-5.24,12.9-8.1,35.37-1,36.68a3.71,3.71,0,0,0,.67.06,13,13,0,0,1,2.38.21c7.73,1.43,4.12,9.87,4.12,9.87q-45.92-.15-91.83-.28s2-10.08,12.73-10c12.2,0,30.11-49.34,31.06-51.34,48.52-126,109.83-246.43,158.52-372.36,1-2.61,16.16-49.45,5.93-51.34a3.49,3.49,0,0,0-.65-.06,15.75,15.75,0,0,1-2.65-.23c-8-1.49-3.91-9.86-3.91-9.86q61.25.18,122.49.33M1293.15,562.44c41-27.57,88.91-38.15,136.57-47.93-1.33-83.49-1.67-166.86-6.24-250.26-40.67,100.62-88.12,198.23-130.33,298.19m217.94-400.31a11,11,0,0,0-2-.19q-61.24-.13-122.48-.33a11.09,11.09,0,0,0-10,6.19c-.73,1.5-4.22,9.38-.46,16.88a16.25,16.25,0,0,0,10.09,8.23c-.53,9.38-5.91,29.53-8.78,37.37-24,62.22-51.76,124.33-78.55,184.4-27.25,61.08-55.41,124.23-79.94,187.88-.19.47-.46,1.14-.78,2-12.62,32.24-19.63,40.42-21.73,42.31-14.45.87-20.57,12.63-21.8,19a11.08,11.08,0,0,0,8.86,13,10.91,10.91,0,0,0,2,.18q45.9.12,91.82.28a11.1,11.1,0,0,0,10.23-6.74c.64-1.5,3.65-9.4-.26-16.69a16.37,16.37,0,0,0-10.29-8,65.64,65.64,0,0,1,4.45-22.29c14.69-36.16,83.83-46.82,129.59-53.87l8.78-1.36c.41,12.64.83,22.23,1.66,37.86,0,.32,0,.64.09,1,.9,8.22.86,30.94-1.76,38.79a18.59,18.59,0,0,0-11.9,6.5c-5.5,6.66-4.22,14.85-3.91,16.43a11.07,11.07,0,0,0,8.84,8.74,10.8,10.8,0,0,0,2,.19l118.49.5a11.07,11.07,0,0,0,11.12-10.68,20.6,20.6,0,0,0-16.93-21.09c-.53-.1-1.07-.18-1.63-.24-1.72-3-5.12-11.9-8.32-38.12-.19-1.54-.32-2.61-.46-3.44-1.15-25.66-1.49-39.47-1.87-62.22,19.26-12,32.83-32.5,34.49-53,1.45-18-6.35-34-22-45.14a11.84,11.84,0,0,0-4.68-2,10.63,10.63,0,0,0-7,1,11.23,11.23,0,0,0-2.57,1.87c-.94-74.22-2.68-143.21-8.26-213.06,0-.63-.07-1.43-.16-2.75-1.63-23.74-.46-33.68.48-37.66a17.86,17.86,0,0,0,11.53-6.93c5.26-7.15,3-15.53,2.51-17.14a11.11,11.11,0,0,0-8.55-7.57M1316.25,536.64c14.53-33.53,29.59-67,44.26-99.63,18-40.12,36.54-81.23,54.16-122.66,1.89,51,2.59,102.27,3.28,152.24q.25,19.46.55,38.92c-31.74,6.58-68.21,14.88-102.25,31.13"/><path d="M1772.37,177.68c73.78,13.67,143.44,60.39,130.2,147.44-7.27,68.59-19.35,136.58-32,204.29-13.73,73.34-73.5,141.07-152.23,140.71q-76.89-.4-153.78-.77s-.34-10,11.27-9.92,18.74-47.61,19.23-50.91c20-124.5,47.32-247.45,58.51-373.24.18-2.62,1.52-49.81-9.14-51.78a2.65,2.65,0,0,0-.69-.06,16.64,16.64,0,0,1-2.8-.25c-8.33-1.54-7-9.93-7-9.93q46.89.08,93.77.11a258.54,258.54,0,0,1,44.72,4.31m-108.63,465a140.64,140.64,0,0,0,16.56,1.42c59.56-.29,105.21-58,115.51-111.9,13.07-68.41,25.52-137.8,33.57-207.4,9.07-64.8-15.28-104-70.25-114.19a173.53,173.53,0,0,0-31.84-2.66c-7.47,147-41.69,289.59-63.55,434.73m110.65-475.87a269.49,269.49,0,0,0-46.65-4.49q-47,0-93.84-.11a11.1,11.1,0,0,0-11,9.37c-1.44,9.23,3.66,20.25,16,22.53l.61.11c2.7,7.77,3.6,29.83,3,40.26-7.67,86.12-23.21,172.59-38.25,256.23-6.83,38-13.89,77.24-20.15,116.08-3.09,20.62-7.94,36.77-11.15,41.72a20.67,20.67,0,0,0-19.49,21.24,11.09,11.09,0,0,0,9,10.52,10.89,10.89,0,0,0,2,.19q76.89.36,153.79.77c40.13.18,77.59-15.69,108.31-45.9,28-27.52,47.48-64.4,54.86-103.85,12.14-64.78,24.61-134,32.15-204.91,6.51-43.32-5.84-81.56-35.75-110.6-24.59-23.89-61.32-41.35-103.43-49.16m-36.63,52.48a148.82,148.82,0,0,1,19.36,2.22c48.85,9.05,69.47,43.29,61.29,101.75l0,.26c-8.13,70.25-20.88,140.81-33.45,206.6-9.63,50.37-51.42,102.64-104.68,102.9-1.29,0-2.55,0-3.81-.13,6.55-42.23,14.16-84.8,21.53-126.06,16.72-93.56,34-190.19,39.79-287.54"/><path class="cls-1" d="M1223.67,489.21c8.49-58.16-30.9-132.18-90.2-150.41,46.82-19.34,93.32-65.75,102.8-117.52C1256,102.69,1114.84,43,1021.83,27.36,896.38,6.3,755.18,38.37,675.3,143.91,618.82,220,611.91,355.1,720.65,386.49c33.87,9.78,81.23,9.07,114.38-5.25,40.34-18.87,89.18-73.45,51.23-118.85-28.79,43.55-91.14,55.67-135.36,35.93-86.74-38.7-9.36-160.5,45.91-194.69,97.28-56.89,381.84-70.24,351.89,116.55-11,67.61-69.81,108-134.89,117.28l-6.25,1.44c7.29-48.67,14.55-97.35,20.81-146.17,1.06-1.51,8.55-58.57,22.55-58.38s13.42-11.27,13.42-11.27q-71.59-1-143.2-2s-2.88,11.43,11,11.61,8.57,55.79,9.07,58.84c-16.59,129.85-36.77,259-44.62,389.74-1,3.08-3,59.6-16,59.59s-11.26,11.67-11.26,11.67q86.7.07,173.41.23c89.34-.49,168.46-78.6,180.86-163.59M996.12,622.51a167.08,167.08,0,0,1-18.81-1.59c4.2-89.25,15-177,27.79-265.37a121.16,121.16,0,0,1,19.52,1.73c65,3.8,122.69,71.59,113.82,134.37-9,63.74-74.53,129.6-142.32,130.86"/><path class="cls-1" d="M1517.56,644.58c-12.25-.06-16.16-49.64-16.7-51-1.26-27.94-1.58-41.86-2-69.65,30.57-15.06,50.82-58.36,17.19-82.32,0,0-.13,16.34-18.36,31.91-.82-84.1-2-167.75-8.66-251.63.13-1.32-4.86-51.35,6.55-51.32s8.25-10,8.25-10l-122-.33s-4.91,10,6.53,10-4.24,48.53-5.25,51.18c-48.47,125.37-109.51,245.27-157.82,370.71-.94,2-18.77,51.14-30.92,51.1-10.72,0-12.67,10-12.67,10q45.72.12,91.42.27s4.27-10-6.48-10c-7.88,0-5-23.36.35-36.58,19.51-48.05,109.29-55.15,158.61-63.76.58,20,.95,30,2,50,.37,2.64,3.44,51-8.79,50.91-10.79,0-8.81,9.93-8.81,9.93l118,.51s.35-9.94-10.48-10m-228.7-96.31c42-99.52,89.26-196.69,129.76-296.86,4.55,83,4.87,166,6.21,249.14-47.46,9.74-95.12,20.28-136,47.72"/><path class="cls-1" d="M1895.58,312c15.86-104.24-87.67-150.37-174.14-151.07q-46.7,0-93.36-.11s-1.57,10.1,9.78,10.13,10,48.94,9.78,51.61c-11.13,125.24-38.28,247.63-58.24,371.59-.5,3.28-7.6,50.74-19.15,50.68s-11.23,9.88-11.23,9.88q76.56.36,153.11.77c78.38.35,137.89-67.07,151.56-140.09,12.62-67.42,24.65-135.1,31.89-203.39M1789.29,518.14c-10.25,53.67-55.7,111.11-115,111.4a137.37,137.37,0,0,1-16.49-1.41c21.76-144.5,55.83-286.45,63.28-432.81,76.86-.15,112.24,40.47,101.63,116.33-8,69.3-20.41,138.38-33.43,206.49"/><path d="M809.86,446.79c31.16,5.78,61.35,25.72,68.79,55.77C892.63,569.05,833.88,633.1,775,650c-38.63,11.1-79.79,8.82-120.62,1.25-36.83-6.83-73.4-18-107.56-27.42-21.08,175.53-54.52,349.24-66.15,525.85-.16,3.12-1.14,59,11.64,61.34a5.14,5.14,0,0,0,.88.08,15,15,0,0,1,2.87.23c9.07,1.69,8.3,11.71,8.3,11.71q-65.93.45-131.86.93s-1.69-12,10.37-12.12c13.68-.1,15.64-56.92,15.84-61.7,10.26-184.73,45-366.38,65.58-550-27-7.11-57.76-16-89.18-21.86-46.33-8.59-94.09-10.41-133.3,10.34C178.89,622,121.29,744.11,205.89,789a82.52,82.52,0,0,0,23.7,8.09c40.57,7.52,89.85-11.1,108.68-46.95,35.91,46.62-13.07,100.54-53.2,120.5-31,13.64-66.87,16.1-99.54,10-6-1.1-11.83-2.5-17.53-4.15-108-31.4-96.52-187.8-36.67-258.24,73.26-86.22,174-94.09,273.83-75.58,38.07,7.05,76,18,112.28,29.79,42.25,13.8,95.16,36.92,146.46,46.43,40.26,7.46,79.53,6.53,111.86-13.87,47.65-30.08,40.59-102.69-5.4-111.21-11-2-24.23-.41-39.46,6.34-.92-45.5,39.79-60.61,79-53.35m2-10.89h0c-28.2-5.23-54.21.12-71.36,14.68-14,11.85-21.11,29.07-20.69,49.79a11.08,11.08,0,0,0,15.56,9.9c12.33-5.47,23.42-7.34,33-5.58,14.29,2.65,24.73,14.17,27.93,30.82a58.71,58.71,0,0,1-26.42,60.13c-26.05,16.44-60,20.48-103.93,12.34-35.3-6.54-72.3-20-104.94-31.92-14.14-5.16-27.49-10-40.1-14.14-43.82-14.32-79.95-23.9-113.7-30.16-126.1-23.37-219.09,2.57-284.3,79.31-41.22,48.52-58.51,131.08-40.21,192,12.94,43.07,41.37,72.12,82.23,84a190.19,190.19,0,0,0,18.61,4.41c37,6.86,74.63,3,106-10.79l.47-.22c29-14.44,61.93-44.68,70-79.72,4.71-20.47.24-40.34-13-57.46a11.08,11.08,0,0,0-18.58,1.61c-15.61,29.72-59.06,48.21-96.85,41.21a71.37,71.37,0,0,1-20.53-7c-24.28-12.86-36.58-33.36-36.58-60.91C174.51,669.52,212,617,247,598.45c31.13-16.48,71.2-19.41,126.1-9.24,24.74,4.59,49.74,11.31,71.8,17.25l7.32,2c-7.37,64.31-16.53,129.34-25.41,192.32-16.05,113.85-32.64,231.59-39.15,348.82l0,.6c-1.18,29.37-5.09,45.84-7.75,50.82a20.17,20.17,0,0,0-13.41,6.82c-6.08,7-5.18,16-4.94,17.74a11.09,11.09,0,0,0,8.95,9.36,11.31,11.31,0,0,0,2.1.18l131.86-.93a11.08,11.08,0,0,0,11-10.22c.77-9.93-4.93-21.16-17.32-23.46q-.78-.15-1.59-.24c-3.78-8.29-5.39-36.63-4.76-50,7.38-112,23.92-225.17,39.91-334.58,8.5-58.16,17.27-118.17,24.62-177.69l6.54,1.84c29,8.19,59,16.65,89.56,22.32,50,9.27,89.92,8.79,125.7-1.49,32.26-9.28,63.21-30.8,84.91-59.07,24.23-31.55,33.66-67.55,26.56-101.34l-.09-.38c-7.82-31.6-38.25-56.72-77.52-64"/><path d="M857.22,713.44C846.62,767.82,810,813.21,794,865.76c-1.78,5.8-.2,10.14,2.67,11.59l.25-1.44c1.63-9.42,11.6-17.38,21.74-17.38a15.58,15.58,0,0,1,2.93.27,14.65,14.65,0,0,1,12,17.1c-1.78,10.13-12.31,21-26.28,25.33-6.56,2-14.72,3.17-22.34,1.76a27,27,0,0,1-15.44-8.26c-23-32.94,39.6-145-8.53-153.91a37.55,37.55,0,0,0-7.9-.55l-44.69,0c-12.88,87.19-28,174-41.48,261.13,7.7,0,59.49-1.56,61.34-13.16,1.73-10.88,13.09-9.45,13.09-9.45-4.71,29-7,43.51-11.07,72.6a14.34,14.34,0,0,1-3.94-.16c-3.23-.6-7.15-2.66-6.21-9.26.67-4.75-7.46-7.78-17.84-9.71-15-2.79-34.83-3.25-39.37-3.24-5.8,41.23-10.63,82.61-13.9,124.12l40.78-.19c53.25-3.43,77-73.78,84.13-116.92,4.68-28.18,32.37-24.54,38-23.5.65.12,1,.21,1,.21-27.61,51.89-27.52,109.92-21.22,166.85q-121.85.6-243.7,1.28s-.95-11,11.06-11.11,16.58-52.19,17-56.58c11.48-111.64,30.37-222.1,47.4-333,.64-4.27,6.92-53.79-4.55-55.92a3.94,3.94,0,0,0-.77-.07,17.5,17.5,0,0,1-3.07-.26c-8.93-1.66-6.45-10.66-6.45-10.66q124.27.06,248.56.18m2-10.89a10.2,10.2,0,0,0-2-.19l-50.2,0q-99.19-.09-198.37-.15A11.1,11.1,0,0,0,598,710.32c-.4,1.46-2.19,9.12,2.16,16.07a18.72,18.72,0,0,0,13,8.42l.61.11c1.94,8.21.82,30.35-1.16,43.61q-5.16,33.66-10.5,67.37c-13.66,86.94-27.78,176.83-37,266.12l0,.36c-2.42,26.53-6.6,41.64-9.22,46.47a21,21,0,0,0-13.36,6.6c-6,6.54-5.58,14.77-5.44,16.35a11.1,11.1,0,0,0,11.1,10.12q121.85-.68,243.68-1.29a11.07,11.07,0,0,0,11-12.29c-5.56-50.3-7.53-108.7,20-160.43a11.12,11.12,0,0,0-7.19-16s-.56-.14-1.57-.33c-6.31-1.17-22.38-2.89-35.49,6.3-8.23,5.78-13.59,14.86-15.48,26.28-7.94,47.87-32,104.69-73.61,107.65l-28.34.13c2.76-32.09,6.54-65.54,11.49-101.64a219.83,219.83,0,0,1,27.73,2.8,52.82,52.82,0,0,1,8.7,2.21c.62,8.6,6.37,15.09,15.36,16.76a25,25,0,0,0,7.34.25,11.07,11.07,0,0,0,9.58-9.45c4.17-29.66,6.45-44.11,11-72.36a11.07,11.07,0,0,0-8.92-12.67,5.93,5.93,0,0,0-.63-.1c-8.31-1-21.25,2.47-24.85,16-5.52,2.82-22.19,5.19-38,6.11,5.19-33.16,10.63-66.63,15.93-99.11C703.3,845.1,711,798,718,751.32l28.34,0h7.11a26.64,26.64,0,0,1,5.57.36c4.07.75,5.66,2.46,6.61,3.88,6.93,10.38.65,39.94-4.41,63.68-6.94,32.64-13.5,63.48-.74,81.8q.4.55.87,1.08A38.09,38.09,0,0,0,783,913.88c11.47,2.13,22.26-.39,27.67-2.08,17.37-5.42,31.31-19.39,33.88-34a25.66,25.66,0,0,0-20.86-29.92,27.21,27.21,0,0,0-4.95-.46,30.84,30.84,0,0,0-6.58.71c6.06-14.81,13.43-29.32,21.1-44.39,14.1-27.72,28.68-56.39,34.88-88.21a11.07,11.07,0,0,0-8.86-13m-4,21.78h0Z"/><path d="M1137.43,713.47s2.44,10.92-10,10.93-11.21,54.48-11.44,55.93c1.63,82.82.48,165.6.2,248.43,20.72-12.33,5.6-33.22,5.6-33.22a53.75,53.75,0,0,1,9.18.86c43.1,8,23.38,69-14.76,78.61.23,14.47.38,21.71.81,36.21-.23,1.41,2.39,53.53,14.53,55.78a4.61,4.61,0,0,0,.84.07,14.51,14.51,0,0,1,2.75.24c8.49,1.57,8,10.64,8,10.64l-123.24.55s-2.53-10.93,9.59-11,11-53.14,10.66-56c-.63-18-.84-27-1.16-44.94a122.18,122.18,0,0,0-19.24-5.22c-43.64-8.09-88,8.83-104.13,52.76-3.81,10.4-16.53,52.16-7.14,53.9a3.31,3.31,0,0,0,.64.06,14.75,14.75,0,0,1,2.82.23c8.46,1.57,4.4,10.7,4.4,10.7l-96.67.45s2.48-11,13.82-11c12.85-.06,32.52-53.41,33.66-56.32,42.68-112,92.36-221,138.32-331.71,1.23-2.83,20.81-53.69,9.19-55.84a3.41,3.41,0,0,0-.8-.07,14.11,14.11,0,0,1-2.58-.22c-8.27-1.53-3.76-10.7-3.76-10.7q65,0,129.92,0M943.21,1043.61c30.32-9.75,58.39-18.68,90-12.81q2.45.45,4.92,1c-.22-69.58.37-139.16-.2-208.74-31.49,73.56-64,146.68-94.77,220.53m196.24-341a11.35,11.35,0,0,0-2-.19q-65,.06-129.91.05a11.07,11.07,0,0,0-9.94,6.19c-.78,1.59-4.5,9.94-.61,17.69a16.32,16.32,0,0,0,10.25,8.31c-.91,9.83-7.8,31.59-11.93,41.36-16,38.56-32.72,77.47-48.87,115.1-30.34,70.68-61.71,143.77-89.62,217l-.29.75c-11.54,30.32-20.82,45.2-24.75,48.49-14.77.93-21.42,13.1-22.9,19.63a11.06,11.06,0,0,0,10.86,13.52l96.67-.45a11.09,11.09,0,0,0,10.07-6.57c.69-1.56,4-9.76,0-17.35a16.74,16.74,0,0,0-10.25-8.22c.61-8.88,5.34-27.75,9.84-40,15.9-43.33,59.34-51.69,91.71-45.69,3.45.64,6.91,1.46,10.33,2.44.24,13,.48,21.81,1,37.21,0,.23,0,.46,0,.69.68,9.35-.34,35.69-3.59,44.17a19.35,19.35,0,0,0-12.81,7c-5.59,7.06-4,15.59-3.61,17.23a11.06,11.06,0,0,0,8.77,8.4,11.81,11.81,0,0,0,2.07.19l123.23-.56a11.09,11.09,0,0,0,11-10.42c.56-9.36-5.1-20-17-22.2-.55-.1-1.11-.18-1.67-.25-4.22-7.71-7.4-34.67-7.4-44.41,0-.28,0-.57,0-.86-.34-11.7-.5-18.64-.66-28,24.44-10.61,39.69-37.83,39-59.65-.62-19.84-13.12-33.93-33.44-37.7-1.77-.33-3.61-.59-5.5-.76q0-7.95.08-15.91c.36-61.68.73-125.46-.5-188.29,0-.6,0-1.41,0-2.69.24-28.35,2.84-39,4.23-42.64a19.64,19.64,0,0,0,13.13-7.08c5.62-7,4.09-15.47,3.72-17.09a11.08,11.08,0,0,0-8.78-8.47M962.61,1026c16.52-39.16,33.58-78.45,50.16-116.66,4.74-10.92,9.55-22,14.37-33.12,0,23.68,0,47.32,0,70.49,0,23.59-.08,47.86,0,71.95-22.77-2.61-44,1.5-64.46,7.34"/><path d="M1490.21,712.28c-8.79,54.66-45,100.58-61.43,152.69-1.84,5.79-.37,10.11,3.18,11.54.11-.57.16-.86.27-1.44,1.77-9.39,10.87-17.37,20.78-17.4a18.12,18.12,0,0,1,3.19.28c8,1.49,12.72,8.68,11.16,17-2,10.83-13.22,21.08-26.24,25.33-6.4,2.09-14.15,3.22-21.51,1.86a27.62,27.62,0,0,1-15.44-8.24c-23.81-33.54,32-146.42-8.21-153.87a26.43,26.43,0,0,0-6.36-.32c-36.95,2.18-61.76,50.41-69.57,85.84-14.77,80-31.73,159.64-47.16,239.56-5.08,27.4,3.2,72,32.75,77.44a34,34,0,0,0,5.44.55c37.54.79,107.52-90.84,49.37-104.23,8.22-20.6,25.42-27.36,41.57-24.36,21.75,4,41.58,25.75,34.92,55.16-13.89,61.37-67.27,107.3-131.72,107.57a114.6,114.6,0,0,1-21.32-2c-51.39-9.53-101-52.77-87.32-109.94,15.17-79.95,32-159.57,46.89-239.59,12.61-67,80.5-109.19,144.85-113l101.91-.49m2-10.89a10.28,10.28,0,0,0-2.07-.18l-101.91.48c-.2,0-.4,0-.6,0-66.4,3.93-141,47.1-155.09,122-8,43.31-16.82,87.24-25.31,129.72-7.17,35.89-14.59,73-21.53,109.61a88.26,88.26,0,0,0,12.16,69.91c17.44,26.82,48.83,46.72,84,53.23a125.73,125.73,0,0,0,23.38,2.15c68.47-.28,127.06-48.07,142.49-116.21,3.58-15.83.93-31.57-7.46-44.31a55.93,55.93,0,0,0-36.25-24.19c-23.44-4.34-44.6,7.89-53.88,31.15a11.08,11.08,0,0,0,7.8,14.91c10.79,2.48,14.68,7.57,13.44,17.57-3.45,27.79-41.29,65.18-60.08,64.79a22.69,22.69,0,0,1-3.66-.37c-11.55-2.14-17.73-13.76-20.88-23.14a87.68,87.68,0,0,1-3-41.4c6.33-32.8,13-66.21,19.56-98.51,9.28-46.11,18.87-93.77,27.56-140.86,8-36.12,31.51-75.34,59.37-77a15.29,15.29,0,0,1,3.68.16c10.87,2,4.51,37-.13,62.5-6.33,34.81-12.31,67.67,1.32,86.88a10.66,10.66,0,0,0,.95,1.16,38.49,38.49,0,0,0,21.52,11.56c10.63,2,20.52-.12,27-2.22,17.42-5.69,31-19.28,33.68-33.82a25.89,25.89,0,0,0-3.89-19.62,24.81,24.81,0,0,0-16.13-10.33,28.37,28.37,0,0,0-5.24-.47,30.88,30.88,0,0,0-5.85.6c5.62-13.45,12.24-26.73,19.12-40.51,14.51-29.09,29.52-59.17,34.9-92.64a11.08,11.08,0,0,0-8.92-12.65"/><path d="M1824.93,710.53s.79,11-10.48,11.07c-12.77.07-19,57.16-19,57.16-9,69.36-21.28,137.84-34.93,206.43,14.61-8,10.79-19.48,10.79-19.48a56.52,56.52,0,0,1,7.64.86c41.8,7.75,12.33,60.16-19.84,66.9-3.06,0-6.27.73-8.57.74-6.12,30-9.21,45-15,75,0,0-9.17,53.34,2.62,55.53a3.38,3.38,0,0,0,.78.06,15.86,15.86,0,0,1,2.63.22c8.25,1.53,5.39,10.62,5.39,10.62q-62.46.19-124.91.42s1.05-10.87,12.48-10.9c13-.05,23.28-52.84,23.83-55.72,6-31.55,12.4-63,18.87-94.49a96.84,96.84,0,0,0-13-3.39c-45-8.35-80.72,20.85-90.7,66.38-2.48,12.7-3.71,19-6.09,31.77,0,0-8.7,53.41,3.08,55.59a4.91,4.91,0,0,0,.78.08,15.55,15.55,0,0,1,3,.24c8.65,1.6,5.92,10.59,5.92,10.59l-124.71.46s.17-10.89,12.34-10.93,22-52.91,22.53-55.79c20.94-110.3,45.36-219.84,62.11-330.89.39-2.85,5.78-54-5.34-56a3.44,3.44,0,0,0-.72-.06,16.38,16.38,0,0,1-3-.24c-8.67-1.61-6.53-10.69-6.53-10.69q61.74-.3,123.48-.63s.58,11-11.48,11.05c-12.8.07-20,57-20,57-10.72,74.06-24.79,147.27-39.7,220.59l12.81-6.52c32.39-15.6,57.15-11.86,79.61-7.7l1.45.28c13.86-69,26.57-138,36-207.76.36-2.86,4.86-54-6.91-56.15a4.39,4.39,0,0,0-.82-.07,14.34,14.34,0,0,1-2.65-.22c-8.36-1.55-7-10.72-7-10.72l123.13-.68m2-10.9a11.16,11.16,0,0,0-2.1-.18l-123.12.68a11.07,11.07,0,0,0-10.9,9.45c-1.42,9.57,3.69,21,15.94,23.24l.59.1c2.55,8.34,2.16,32.69.82,44.1-7.79,57.36-18.28,118.32-33.8,196.32-21.22-3.35-43.13-4.13-69.82,6.95,12.2-60.76,25.35-130,35.37-199.22l0-.21c2.58-20.43,7.91-41.52,11.86-47.46a21.56,21.56,0,0,0,13.83-6.52,22.71,22.71,0,0,0,5.85-16,11.09,11.09,0,0,0-9-10.32,10.29,10.29,0,0,0-2.09-.18L1536.9,701a11.08,11.08,0,0,0-10.73,8.53c-.34,1.47-1.85,9.14,2.6,16a18.69,18.69,0,0,0,12.7,8.16l.33.06c2.13,8.69,1.23,32.61-.27,43.86-11.46,76-26.83,152.72-41.69,227-6.77,33.84-13.77,68.84-20.33,103.37-3.82,20.82-10.14,41.32-14.32,46.9a22.39,22.39,0,0,0-20.75,21.71,11.12,11.12,0,0,0,9.06,11.07,10.22,10.22,0,0,0,2.07.18l124.7-.45a11.06,11.06,0,0,0,10.56-7.86c.45-1.49,2.49-9.26-1.79-16.31a18.14,18.14,0,0,0-12.71-8.4l-.22,0c-1.4-7.37-.49-25.83,2.3-43.07,2.37-12.65,3.59-19,6-31.43,9.13-41.47,40.4-64.67,77.83-57.73.69.13,1.38.26,2.06.41-5.24,25.61-11.15,54.81-16.81,84.49-3.93,20.58-10.81,41.57-15.21,46.81-14.17,1.16-20.47,12.85-21.24,20.83a11.06,11.06,0,0,0,9,12,10.81,10.81,0,0,0,2.06.19l124.9-.43a11.07,11.07,0,0,0,10.53-7.75c.48-1.53,2.65-9.49-1.61-16.6a17.84,17.84,0,0,0-12.15-8.19c-1.34-7.38-.27-25.81,2.67-43,5.24-27.08,8.18-41.49,13.33-66.68a10.13,10.13,0,0,0,1.63-.22c25.62-5.37,49.56-33.17,49.28-57.21-.18-16.27-11.29-28-29.69-31.43-1.07-.19-2.16-.37-3.28-.51,12.88-67,21.9-122,28.75-175a1.66,1.66,0,0,1,0-.22c2.2-20.35,7.12-41.4,10.92-47.45a20.43,20.43,0,0,0,12.93-6.34c6-6.48,5.73-14.83,5.61-16.44a11.07,11.07,0,0,0-9-10.1"/><path d="M2106.88,708.8c-4.28,54.54-37.23,102.14-51.34,154-1.61,5.81,0,10.16,2.83,11.6.09-.58.13-.87.22-1.45,1.42-9.44,10.89-17.47,20.75-17.51a15,15,0,0,1,14.95,17.37c-1.51,10.17-11.64,21.07-25.25,25.48-6.39,2.07-14.35,3.22-21.81,1.84a26.26,26.26,0,0,1-15.18-8.23c-22.47-32.77,34.77-145.58-14.33-154.68a39.15,39.15,0,0,0-7.69-.57l-42.76.24c-7.31,88.34-21.75,174.58-38.85,261.51,7.65,0,59.21-1.6,61.48-13.15,2.13-10.82,13.3-9.42,13.3-9.42-5.61,28.88-8.57,43.29-14.45,72.12a14.43,14.43,0,0,1-3.92-.15c-3.2-.6-7-2.64-5.65-9.19,1-4.72-7-7.72-17.28-9.62-14.84-2.75-34.49-3.2-39-3.19-8.35,40.83-16.75,81.66-24.54,122.6l41.24-.12c54.18-3.53,83.76-70.65,93.56-115.58,6.1-28,33.31-24.4,38.85-23.37l1,.2c-28.76,50.65-33.91,108-33,165.16q-123.62.38-247.22.78s.4-10.85,12.61-10.88,22.64-51.33,23.5-55.66c22.06-110.14,45.41-219.74,58.93-331.35.45-4.29,3.86-54.24-7.25-56.29a3.81,3.81,0,0,0-.75-.07,16.26,16.26,0,0,1-2.94-.24c-8.69-1.61-6.91-10.73-6.91-10.73q118.48-.71,237-1.47m2-10.89a11.29,11.29,0,0,0-2.09-.19q-118.49.76-237,1.46a11.1,11.1,0,0,0-10.81,9c-.28,1.46-1.47,9.07,3.08,15.75a19.05,19.05,0,0,0,12.69,8l.65.11c2.57,8.57,2.47,33.31,1.29,44.43-11.83,97.65-31.64,195.82-50.8,290.76q-4,19.79-8,39.58c-4.12,20.88-10.81,41.42-15.14,46.86a22.39,22.39,0,0,0-21.18,21.45,11.06,11.06,0,0,0,9,11.3,11.69,11.69,0,0,0,2.06.19q123.6-.4,247.21-.78a11.06,11.06,0,0,0,11-11.25c-.76-50,2.41-108.1,31.6-159.52a11.13,11.13,0,0,0-7-16.24s-.56-.14-1.57-.32c-19.83-3.68-45.28,2.47-51.7,31.9-8.31,38.13-35.16,103.45-83.12,106.87l-27.44.07c6.5-33.53,13.41-67.34,20.13-100.18a220.35,220.35,0,0,1,28,2.78,55.13,55.13,0,0,1,8,2,17.62,17.62,0,0,0,2.92,9.32,18.06,18.06,0,0,0,12,7.52,25.31,25.31,0,0,0,7.31.26,11.07,11.07,0,0,0,9.48-8.78l1.14-5.56c5.22-25.57,8.09-39.66,13.33-66.66a11.07,11.07,0,0,0-8.85-13l-.64-.1c-8.13-1-21,2.46-24.95,15.8-5.35,2.84-21.89,5.24-37.67,6.21,18.14-93.83,29.23-168.5,35.49-238.94l32.64-.18a27.76,27.76,0,0,1,5.61.39c3.59.66,10.27,1.9,11.36,18.86.9,14-2.4,33.11-5.6,51.59-5.49,31.83-10.68,61.89,1.45,79.59a12,12,0,0,0,.86,1.1A37.46,37.46,0,0,0,2045.21,911c11.33,2.1,21.93-.47,27.24-2.2,17.13-5.54,30.61-19.68,32.8-34.38a26.12,26.12,0,0,0-25.95-30.08,30.6,30.6,0,0,0-6.49.74c4.57-12.6,10-25.13,15.53-38.13,13.2-30.73,26.85-62.51,29.58-97.32a11.06,11.06,0,0,0-9-11.76"/><path d="M2312,710.24c75.77,14,142,82,130.67,163.33-10,72-68.17,132.06-135.82,155.51,14.31,31.4,21.32,47.08,35.42,78.45,0,0,24.27,52.83,37.52,55.29a6.22,6.22,0,0,0,.94.09,17.8,17.8,0,0,1,3.45.3c9.4,1.74,12,10.46,12,10.46l-124.66.36s-6.27-10.8,5.2-10.83c12.23,0-10-52.59-11.74-55.46-10.91-28.67-23.08-65.43-56.53-71.9-5.77,28.85-8.77,43.26-14.65,72.09-.57,2.82-9.24,53.36,1.9,55.43a4.23,4.23,0,0,0,.73.06,15.5,15.5,0,0,1,3,.25c8.64,1.6,5.63,10.55,5.63,10.55l-125.32.37s.55-10.83,12.77-10.87,23.16-51.25,24-55.57c22.47-110.18,44.33-219.85,54.52-332,.33-4.31,2-54.52-9.17-56.58a4.53,4.53,0,0,0-.74-.07,15.37,15.37,0,0,1-2.93-.24c-8.7-1.61-7.29-10.78-7.29-10.78q67-.45,133.9-.92a156.22,156.22,0,0,1,27.22,2.65m-98.57,300.35,6.88,0c73.74-1.08,138.3-66,147.55-137.4,8-61.58-31.46-124.88-92.57-136.2a108.14,108.14,0,0,0-19.84-1.79,21.09,21.09,0,0,0-6.74.79c-4.3,92.83-17.93,183.41-35.28,274.62M2314,699.35h0a167.61,167.61,0,0,0-29.14-2.84q-67.21.48-134.08.92a11.09,11.09,0,0,0-10.87,9.4c-1.48,9.59,3.7,21,16.22,23.36l.86.14c3.05,8.62,3.7,34.73,3,44.94-9.77,107.34-29.52,209-54.34,330.67-4.07,20.1-11.24,41.4-15.62,46.81a22.6,22.6,0,0,0-21.39,21.29,11.11,11.11,0,0,0,9,11.45,11.86,11.86,0,0,0,2.06.18l125.31-.37a11.08,11.08,0,0,0,10.47-7.55c.5-1.49,2.8-9.32-1.41-16.47a18.17,18.17,0,0,0-12.58-8.49c-1.44-8.9.92-31.57,3.13-42.65,1.78-8.74,3.29-16.16,4.71-23.05,2.53-12.35,4.71-23,7.45-36.65,18.44,9.89,27.74,34.57,36.1,56.73l1.7,4.51a10.51,10.51,0,0,0,.7,1.48c3.2,6.28,12,29.4,13.72,40.24a15.62,15.62,0,0,0-8.24,6.84c-4.77,8.33.12,17.59,1.15,19.36a11.05,11.05,0,0,0,7.56,5.32,10.68,10.68,0,0,0,2,.19l124.66-.35a11.1,11.1,0,0,0,10.6-14.22,27,27,0,0,0-20.59-18.23,29.25,29.25,0,0,0-4-.45c-5.81-4-19.44-26.32-29.85-48.95l-4.81-10.71c-9.68-21.57-16-35.75-25.69-57,70-28.64,122.32-91.66,131.82-160.16,5.71-41.14-6.81-82.19-35.23-115.59-26.21-30.79-64.25-52.72-104.4-60.15m-54.73,47a95.66,95.66,0,0,1,14,1.53c53.66,9.95,91.16,65.52,83.6,123.89-8.54,66-67.22,122.77-130,127.44,18.29-98.32,28.42-177.28,32.44-252.86"/><path class="cls-1" d="M491.65,1199.86c-13.72.09-12.7-58.25-12.53-61.44,11.62-176.67,45.09-350.43,66.18-526,72,20,154.74,47.32,228.24,26.18,59-16.94,117.71-81,103.73-147.52-16.79-67.85-149.46-84.16-147.79-2.42,79-35,103.92,67.62,44.87,104.9-73.53,46.42-183-7.92-258.41-32.57-131.39-42.92-285-73.33-386.23,45.81-59.88,70.46-71.32,226.91,36.67,258.31,36.94,10.74,80.47,10.24,117.11-5.89,40.15-20,89.15-73.9,53.22-120.53C314,781.94,246.9,800.11,204.29,777.53c-84.63-44.86-27-167.06,35.89-200.36,65.82-34.84,155.73-6.06,222.56,11.52-20.55,183.71-55.34,365.41-65.6,550.2-.21,4.79-2.17,61.62-15.85,61.72-12.07.09-10.38,12.13-10.38,12.13l131.9-.94s.93-12-11.16-11.94"/><path class="cls-1" d="M811.56,1001.36s-33.82-8.12-39,23.3c-7.17,43.16-30.89,113.53-84.17,117l-40.78.19c3.26-41.52,8.09-82.92,13.91-124.16,7.67,0,58.88,1.32,57.21,12.95-1.55,10.91,10.17,9.43,10.17,9.43,4.08-29.1,6.35-43.62,11.07-72.63,0,0-11.36-1.43-13.1,9.45C725,988.46,673.18,990,665.48,990c13.45-87.14,28.61-174,41.5-261.21l44.71,0c62.38-1.7-7.67,119.95,16.43,154.51,9.8,10.87,26.27,10.1,37.79,6.51,14-4.37,24.5-15.21,26.29-25.34,1.66-9.41-5.53-17.38-14.9-17.38-10.16,0-20.12,8-21.76,17.38l-.25,1.45c-2.86-1.45-4.45-5.79-2.67-11.59,16-52.57,52.61-98,63.21-152.37q-124.32-.11-248.64-.19s-3,10.92,9.52,10.93,6,51.64,5.33,56c-17,110.93-35.94,221.42-47.42,333.1-.41,4.39-5,56.53-17,56.6s-11.06,11.11-11.06,11.11q121.88-.69,243.77-1.28c-6.29-57-6.39-115,21.22-166.91"/><path class="cls-1" d="M1131.13,1155.78c-12.87,0-15.6-54.43-15.37-55.87-.43-14.51-.58-21.75-.81-36.22,40.62-10.2,60.37-78.77,5.58-79.5,0,0,15.13,20.9-5.59,33.23.27-82.85,1.42-165.66-.21-248.51.23-1.45-1-55.94,11.44-55.95s10-10.93,10-10.93q-65,.08-130,0S1000.8,713,1012.52,713c13.27,0-7.14,53-8.4,55.93-46,110.71-95.67,219.77-138.36,331.81-1.14,2.92-20.82,56.29-33.67,56.34-11.35.05-13.83,11.05-13.83,11.05l96.7-.45s4.9-11-7.22-10.93c-10.59,0,2.6-43.35,6.5-54,18.52-50.44,74.28-65.29,123.42-47.54.31,18,.52,26.94,1.16,45,.32,2.89,1.45,56-10.67,56.06s-9.59,11-9.59,11l123.28-.56s.65-10.92-10.71-10.88M941.85,1032.27c30.81-73.87,63.3-147,94.8-220.59.57,69.61,0,139.2.2,208.8-33.71-7.81-63.11,1.54-95,11.79"/><path class="cls-1" d="M1359.2,1027.55c58.18,13.4-11.82,105.06-49.37,104.27-34-.71-43.59-49-38.21-78,15.44-79.94,32.4-159.57,47.18-239.63,7.81-35.45,32.63-83.69,69.59-85.88,52-3.08-10.37,119.1,14.57,154.24,10.13,10.79,25.66,10.08,37,6.38,13-4.24,24.21-14.49,26.24-25.33,1.77-9.4-4.43-17.33-14.35-17.3s-19,8-20.79,17.4c-.11.58-.17.87-.27,1.45-3.55-1.44-5-5.77-3.18-11.55,16.45-52.13,52.67-98.06,61.45-152.74l-101.94.48c-64.37,3.82-132.28,46-144.9,113-14.87,80-31.73,159.69-46.91,239.67-15.57,65.11,50.93,112.17,108.68,111.93,64.47-.27,117.87-46.22,131.77-107.6,11.6-51.27-57.22-79.18-76.53-30.82"/><path class="cls-1" d="M1758.07,1022.13c34-7.12,64.94-65.14,12.2-67.79,0,0,3.82,11.53-10.79,19.5,13.65-68.61,26-137.12,34.94-206.5,0,0,6.19-57.11,19-57.18,11.27-.06,10.48-11.08,10.48-11.08l-123.17.68s-1.63,11,9.66,11c12.8-.07,8.1,53.32,7.73,56.23-9.48,69.81-22.19,138.77-36.06,207.83-22.85-4.26-48-8.52-81.09,7.43l-12.8,6.52c14.91-73.34,29-146.58,39.71-220.66,0,0,7.19-57,20-57,12.05-.06,11.48-11,11.48-11q-61.75.33-123.52.63s-2.6,11,9.47,10.93,6.47,53.19,6.07,56.11c-16.76,111.09-41.18,220.66-62.12,331-.53,2.9-10.37,55.77-22.55,55.82s-12.33,10.93-12.33,10.93l124.74-.46s3.3-10.88-8.88-10.84c-12.94.05-3.85-55.68-3.85-55.68,2.37-12.72,3.59-19.08,6.08-31.78,10.92-49.85,52.62-80.11,103.72-63-6.48,31.47-12.86,63-18.88,94.52-.56,2.89-10.88,55.69-23.84,55.74-11.43,0-12.48,10.91-12.48,10.91l124.94-.43s3.42-10.86-8-10.82c-13,0-3.41-55.62-3.41-55.62,5.82-30,8.91-45,15-75,2.3,0,5.5-.73,8.57-.74"/><path class="cls-1" d="M2032.15,1021.38c-9.8,44.95-39.39,112.09-93.58,115.62l-41.27.13c7.8-41,16.2-81.8,24.55-122.65,7.66,0,58.66,1.28,56.31,12.81-2.21,10.83,9.57,9.35,9.57,9.35,5.89-28.84,8.85-43.26,14.46-72.14,0,0-11.18-1.41-13.31,9.42-2.27,11.55-53.83,13.13-61.49,13.15,17.1-87,31.54-173.22,38.86-261.59,17.12-.1,25.67-.14,42.78-.25,62.39-1.16-1.52,121,22,155.3,9.65,10.84,25.76,10,37,6.4,13.62-4.42,23.75-15.31,25.26-25.49a15,15,0,0,0-14.95-17.38c-9.86,0-19.34,8.07-20.76,17.51-.09.59-.14.88-.22,1.46-2.82-1.44-4.44-5.79-2.84-11.61,14.11-51.89,47.08-99.5,51.36-154.06q-118.51.76-237.05,1.46s-2.15,11,9.86,11,8.47,52,8,56.38c-13.52,111.64-36.88,221.28-58.94,331.46-.86,4.33-11.31,55.63-23.52,55.67s-12.61,10.89-12.61,10.89l247.3-.78c-.86-57.13,4.3-114.55,33.06-165.22,0,0-33-8-39.85,23.18"/><path class="cls-1" d="M2379.82,1151.61c-13,0-38.48-55.39-38.48-55.39-14.1-31.38-21.11-47.07-35.43-78.48,67.67-23.47,125.88-83.56,135.87-155.56,12.62-91-71.69-165.27-158-166q-67,.48-133.94.93s-1.72,11.1,10.22,11,10.25,52.26,9.92,56.66c-10.2,112.16-32.07,221.87-54.54,332.08-.88,4.33-11.81,55.57-24,55.6s-12.77,10.87-12.77,10.87l125.36-.37s3.64-10.84-8.6-10.8-3.21-52.63-2.63-55.51c5.88-28.84,8.89-43.26,14.66-72.12,33.46,6.48,45.64,43.25,56.55,71.93,1.71,2.87,24,55.44,11.74,55.47-11.47,0-5.2,10.84-5.2,10.84l124.7-.36a15.87,15.87,0,0,0-15.43-10.77M2219.34,999.23l-6.88,0c17.35-91.24,31-181.85,35.29-274.72a20.8,20.8,0,0,1,6.74-.78c72.21-.14,121.26,70,112.45,138-9.25,71.42-73.83,136.37-147.6,137.45"/><path class="cls-2" d="M1219.13,486.51c8.49-58.16-30.9-132.18-90.2-150.4,46.83-19.34,93.33-65.75,102.81-117.53C1251.42,100,1110.31,40.29,1017.3,24.67,891.84,3.6,750.65,35.67,670.77,141.22c-56.48,76.1-63.39,211.19,45.34,242.57,33.88,9.79,81.23,9.08,114.39-5.24,40.34-18.88,89.18-73.46,51.22-118.85-28.78,43.55-91.13,55.66-135.35,35.93-86.75-38.71-9.37-160.5,45.9-194.7,97.28-56.89,381.85-70.24,351.9,116.56-11,67.6-69.82,107.94-134.89,117.27l-6.26,1.45c7.3-48.67,14.55-97.36,20.81-146.18,1.07-1.5,8.55-58.56,22.56-58.37s13.42-11.27,13.42-11.27q-71.61-1-143.2-2s-2.88,11.43,11,11.61,8.57,55.79,9.07,58.85c-16.58,129.85-36.77,259-44.61,389.74-1,3.08-3,59.6-16,59.59s-11.25,11.66-11.25,11.66q86.7.07,173.41.23c89.34-.49,168.45-78.6,180.85-163.59M991.58,619.82a169.65,169.65,0,0,1-18.81-1.59c4.2-89.25,15-177,27.79-265.38a123.4,123.4,0,0,1,19.52,1.73c65,3.8,122.7,71.6,113.82,134.38-9,63.73-74.52,129.6-142.32,130.86"/><path class="cls-2" d="M1513,641.88c-12.26-.06-16.17-49.63-16.71-51-1.25-27.94-1.57-41.85-2-69.64,30.57-15.07,50.83-58.37,17.2-82.33,0,0-.14,16.35-18.36,31.92-.82-84.1-2-167.75-8.66-251.63.13-1.33-4.87-51.35,6.55-51.32s8.24-10,8.24-10l-121.94-.33s-4.92,10,6.53,10-4.24,48.53-5.26,51.17c-48.46,125.37-109.51,245.28-157.82,370.72-.94,2-18.76,51.14-30.92,51.1-10.72,0-12.66,10-12.66,10q45.7.12,91.42.27s4.26-10-6.48-10c-7.88,0-5-23.35.34-36.57,19.52-48,109.29-55.16,158.62-63.77.57,20,1,30,2,50,.38,2.64,3.45,51-8.78,50.91-10.79,0-8.81,9.94-8.81,9.94q59,.23,118,.5s.35-9.94-10.47-10m-228.7-96.3c42-99.52,89.25-196.69,129.76-296.87,4.54,83,4.87,166,6.2,249.15-47.45,9.74-95.11,20.28-136,47.72"/><path class="cls-2" d="M1891.05,309.31c15.85-104.24-87.67-150.37-174.15-151.07l-93.35-.11s-1.58,10.1,9.78,10.12,10,48.95,9.78,51.62C1632,345.1,1604.83,467.5,1584.86,591.46c-.49,3.28-7.59,50.73-19.15,50.68s-11.22,9.88-11.22,9.88q76.56.35,153.11.76c78.38.36,137.88-67.07,151.55-140.08,12.63-67.42,24.65-135.11,31.9-203.39M1784.76,515.45c-10.26,53.67-55.71,111.1-115,111.39a137.53,137.53,0,0,1-16.49-1.4c21.76-144.5,55.84-286.46,63.28-432.81,76.86-.15,112.25,40.47,101.64,116.33-8,69.3-20.42,138.38-33.43,206.49"/><path class="cls-2" d="M487.11,1197.16c-13.71.09-12.69-58.25-12.52-61.43,11.62-176.67,45.08-350.43,66.17-526,72,20,154.74,47.31,228.25,26.18,58.94-16.94,117.71-81,103.73-147.53-16.79-67.84-149.46-84.15-147.8-2.42,79-35,103.93,67.63,44.88,104.9-73.54,46.42-183-7.92-258.41-32.56-131.39-42.92-285-73.33-386.24,45.81C65.3,674.54,53.86,831,161.85,862.39c36.93,10.74,80.46,10.24,117.11-5.89,40.14-20,89.15-73.9,53.22-120.54-22.73,43.29-89.81,61.46-132.42,38.88-84.63-44.86-27-167.06,35.89-200.36,65.82-34.84,155.72-6.06,222.55,11.52-20.54,183.7-55.33,365.41-65.6,550.2-.2,4.78-2.17,61.62-15.84,61.72-12.07.08-10.38,12.13-10.38,12.13q66-.49,131.9-.94s.93-12-11.17-11.95"/><path class="cls-2" d="M807,998.67s-33.83-8.12-39,23.3c-7.16,43.16-30.89,113.53-84.16,117l-40.79.19c3.27-41.52,8.1-82.92,13.91-124.16,7.67,0,58.88,1.32,57.22,13-1.55,10.91,10.16,9.43,10.16,9.43,4.09-29.1,6.36-43.62,11.07-72.63,0,0-11.36-1.43-13.09,9.45-1.85,11.61-53.66,13.16-61.36,13.17,13.44-87.14,28.6-174,41.49-261.22l44.71,0c62.38-1.71-7.66,120,16.43,154.51,9.81,10.86,26.28,10.1,37.8,6.51,14-4.37,24.49-15.21,26.28-25.34,1.66-9.41-5.53-17.38-14.9-17.38-10.15,0-20.11,8-21.75,17.38l-.25,1.45c-2.87-1.45-4.45-5.79-2.67-11.6,15.95-52.56,52.61-98,63.21-152.37q-124.32-.09-248.64-.18s-3,10.92,9.51,10.92,6,51.65,5.33,56c-17,110.92-35.94,221.42-47.41,333.09-.41,4.4-5,56.54-17,56.61S542,1166.86,542,1166.86q121.89-.69,243.78-1.29c-6.3-56.94-6.4-115,21.22-166.9"/><path class="cls-2" d="M1126.6,1153.09c-12.87.05-15.61-54.43-15.38-55.88-.42-14.5-.58-21.74-.8-36.22,40.62-10.19,60.36-78.77,5.58-79.49,0,0,15.12,20.89-5.6,33.22.27-82.85,1.43-165.65-.21-248.5.23-1.45-1-55.94,11.45-56s10-10.94,10-10.94q-65,.07-130,0s-5.37,10.92,6.35,10.92c13.27,0-7.15,53-8.4,55.94-46,110.7-95.67,219.77-138.36,331.81-1.15,2.91-20.83,56.28-33.68,56.34-11.34,0-13.82,11-13.82,11l96.69-.45s4.9-11-7.21-10.94c-10.59,0,2.59-43.35,6.5-54,18.51-50.44,74.27-65.29,123.41-47.54.31,18,.53,26.94,1.16,45,.32,2.89,1.45,56-10.66,56.06s-9.59,11-9.59,11l123.27-.56s.65-10.92-10.7-10.87M937.32,1029.58c30.81-73.87,63.29-147,94.8-220.59.57,69.6,0,139.2.19,208.8-33.71-7.81-63.1,1.54-95,11.79"/><path class="cls-2" d="M1354.67,1024.86c58.17,13.39-11.83,105.05-49.38,104.27-34-.71-43.59-49-38.2-78,15.43-79.94,32.4-159.57,47.18-239.64,7.81-35.44,32.63-83.68,69.59-85.87,52-3.08-10.38,119.1,14.57,154.23,10.12,10.8,25.65,10.08,37,6.39,13-4.25,24.2-14.5,26.24-25.34,1.76-9.39-4.43-17.33-14.35-17.3s-19,8-20.79,17.41c-.11.57-.17.86-.28,1.44-3.54-1.43-5-5.76-3.17-11.55,16.44-52.12,52.66-98,61.45-152.73l-102,.48c-64.36,3.82-132.27,46-144.9,113-14.87,80-31.72,159.69-46.9,239.67-15.57,65.11,50.92,112.17,108.67,111.94,64.47-.27,117.88-46.22,131.77-107.61,11.6-51.26-57.21-79.17-76.52-30.81"/><path class="cls-2" d="M1753.54,1019.44c34-7.12,64.93-65.14,12.2-67.79,0,0,3.82,11.52-10.8,19.49,13.65-68.6,26-137.11,34.94-206.49,0,0,6.19-57.11,19-57.18,11.26-.06,10.48-11.08,10.48-11.08l-123.18.68s-1.63,11,9.67,10.95c12.79-.07,8.09,53.31,7.73,56.23-9.49,69.8-22.2,138.77-36.06,207.83-22.85-4.26-48-8.52-81.09,7.43L1583.59,986c14.92-73.35,29-146.59,39.72-220.66,0,0,7.19-57,20-57,12-.06,11.47-11.05,11.47-11.05l-123.52.63s-2.59,11,9.48,10.92,6.47,53.2,6.07,56.11c-16.76,111.09-41.18,220.67-62.13,331-.53,2.89-10.37,55.77-22.54,55.81s-12.34,10.93-12.34,10.93q62.37-.24,124.75-.45s3.3-10.88-8.88-10.84c-13,0-3.86-55.69-3.86-55.69,2.38-12.72,3.6-19.07,6.09-31.78,10.91-49.84,52.62-80.11,103.71-63-6.47,31.47-12.85,63-18.88,94.52-.55,2.88-10.88,55.69-23.84,55.74-11.43,0-12.48,10.91-12.48,10.91l124.95-.43s3.42-10.87-8-10.83c-13,0-3.41-55.62-3.41-55.62,5.82-30,8.91-45,15-75,2.3,0,5.51-.73,8.58-.74"/><path class="cls-2" d="M2027.62,1018.69c-9.81,44.94-39.4,112.08-93.59,115.61l-41.26.13c7.8-41,16.2-81.79,24.55-122.65,7.65,0,58.65,1.29,56.31,12.82-2.21,10.82,9.57,9.35,9.57,9.35,5.88-28.85,8.85-43.26,14.46-72.15,0,0-11.18-1.4-13.31,9.43-2.27,11.54-53.84,13.13-61.49,13.15,17.09-87,31.54-173.23,38.85-261.6l42.78-.24c62.39-1.17-1.51,121,22,155.3,9.64,10.84,25.76,10,37,6.39,13.61-4.41,23.74-15.31,25.26-25.48a15,15,0,0,0-15-17.38c-9.87,0-19.34,8.07-20.77,17.51-.09.58-.13.88-.22,1.46-2.82-1.44-4.43-5.79-2.83-11.61,14.11-51.9,47.07-99.51,51.35-154.06q-118.52.76-237,1.46s-2.15,11,9.85,11,8.47,52,8,56.38c-13.52,111.64-36.87,221.27-58.94,331.45-.86,4.33-11.31,55.64-23.51,55.68s-12.62,10.89-12.62,10.89q123.66-.4,247.3-.79c-.85-57.13,4.3-114.54,33.07-165.21,0,0-33-8-39.85,23.18"/><path class="cls-2" d="M2375.28,1148.91c-13,0-38.47-55.38-38.47-55.38-14.1-31.38-21.12-47.07-35.43-78.49,67.67-23.46,125.88-83.55,135.86-155.55,12.63-91-71.68-165.27-157.94-166q-67,.48-133.94.92s-1.72,11.11,10.22,11,10.24,52.25,9.91,56.66c-10.19,112.16-32.06,221.87-54.54,332.08-.87,4.33-11.81,55.56-24,55.6s-12.77,10.87-12.77,10.87l125.35-.37s3.64-10.84-8.59-10.8-3.21-52.63-2.63-55.51c5.88-28.84,8.88-43.26,14.66-72.12,33.45,6.48,45.64,43.25,56.54,71.93,1.71,2.87,24,55.43,11.75,55.47-11.48,0-5.2,10.83-5.2,10.83l124.7-.35a15.89,15.89,0,0,0-15.44-10.78M2214.81,996.53l-6.89,0c17.35-91.25,31-181.86,35.3-274.72a21.09,21.09,0,0,1,6.74-.79c72.2-.13,121.25,70,112.45,138-9.26,71.42-73.84,136.36-147.6,137.44"/><path d="M774.76,347.56a108.14,108.14,0,0,1-55.56-5,90,90,0,0,1-43.68-35.14,102.32,102.32,0,0,1-15.8-53.9,114.83,114.83,0,0,1,3.2-28A123.47,123.47,0,0,1,673,199.27c-7.35,17.16-11.33,35.69-10.44,54.14a102,102,0,0,0,16.06,52c9.71,15.58,24.66,27.52,41.62,34.52a105.47,105.47,0,0,0,26.7,7,119.77,119.77,0,0,0,27.82.64"/><path d="M1675.41,228c-4.2,31.91-8.79,63.75-13.45,95.58L1647.54,419l-15.27,95.29-7.93,47.6L1616,609.41l6.53-47.82,6.92-47.77,14.42-95.42,15.27-95.3c5.24-31.74,10.55-63.48,16.25-95.15"/><path d="M1494.26,481.16c-5.23,9.23-13.38,16.47-22,22.55a109.73,109.73,0,0,1-28.75,13.62c-2.5.95-5.12,1.44-7.68,2.18a67.14,67.14,0,0,1-7.78,1.73c-2.63.45-5.23,1-7.86,1.37l-7.92.89c-10.52,1.17-20.9,2-31.25,3.8a325.87,325.87,0,0,0-60.88,15.24,282.93,282.93,0,0,0-29.07,12,207.54,207.54,0,0,0-27.51,15.36c16.73-12.91,35.93-22.33,55.6-30s40.41-12.77,61.29-16.22c10.43-1.71,21.07-2.45,31.51-3.49a165.24,165.24,0,0,0,30.73-5.54,108.32,108.32,0,0,0,28.59-12.42c8.84-5.48,17.09-12.29,23-21"/><path d="M969.59,206.5c-2.64,32.07-5.68,64.1-8.79,96.12l-9.76,96-10.63,95.93L934.8,542.5l-6,47.89L933,542.3l4.59-48,9.77-96L958,302.32c3.69-32,7.44-63.91,11.6-95.82"/><path d="M1821.48,555.81a132,132,0,0,1-8,18.55,143,143,0,0,1-10.88,17.12A132.69,132.69,0,0,1,1773.71,620a135.48,135.48,0,0,1-36.16,18.46,131.82,131.82,0,0,1-39.77,6.84,161.58,161.58,0,0,0,19.75-3.64,150.77,150.77,0,0,0,19.08-5.88,155.89,155.89,0,0,0,35-18.77,151.56,151.56,0,0,0,28.81-27.26,163.89,163.89,0,0,0,21.11-33.94"/><path d="M1439.23,243.48c1.67,18,2.9,36,3.93,54s1.68,36,2.3,54.05c.38,18,.83,36,.73,54.09s-.33,36.06-.82,54.09c-.66-18-1-36.05-1.32-54.07s-.76-36-1.35-54c-.4-18-1.07-36-1.66-54Z"/><path d="M218.21,827.17a104.61,104.61,0,0,1-56-3.93,89.14,89.14,0,0,1-44.49-35.43A100.69,100.69,0,0,1,102,733.14a109.26,109.26,0,0,1,3.66-28.22,119.4,119.4,0,0,1,10.79-26c-6.87,17.4-10.28,35.88-9.26,54.11a104.17,104.17,0,0,0,4.74,26.74A98.77,98.77,0,0,0,123.3,784.2a84.26,84.26,0,0,0,17.79,20.15,92,92,0,0,0,23,14.08,111.34,111.34,0,0,0,26.35,7.39,123.54,123.54,0,0,0,27.75,1.35"/><path d="M1120.05,1020.92c-5.36,7.1-12.9,12.38-21,16.22a69.84,69.84,0,0,1-26.16,5.92,87.79,87.79,0,0,1-26.68-3.42,252.76,252.76,0,0,0-25.6-6.3,169.72,169.72,0,0,0-52.3-2.19,135.44,135.44,0,0,0-25.71,5.46,102.21,102.21,0,0,0-24.1,10.69c14.36-10.52,31.85-16.23,49.43-19s35.8-1.81,53.36,1.38a252.77,252.77,0,0,1,25.83,6.7,94.32,94.32,0,0,0,25.73,3.82,68,68,0,0,0,25.5-4.75,58.34,58.34,0,0,0,21.67-14.57"/><path d="M1754.16,987.21c-5.82,5.36-13.46,8.32-21.08,10.28a82.43,82.43,0,0,1-23.65,1.87,109.47,109.47,0,0,1-11.83-1.2c-3.87-.84-7.81-1.39-11.6-2.53-7.73-2-15-4.33-22.66-5.93-15.1-3.48-30.69-5.21-46.06-3.54a77.9,77.9,0,0,0-22.37,5.58c-7.1,3-13.89,7.14-19,13.1,4.45-6.53,11.21-11.2,18.23-14.79a80.07,80.07,0,0,1,22.77-6.78c15.79-2.19,31.84-.58,47.23,2.88,7.68,1.73,15.29,4.26,22.7,6.28a130.92,130.92,0,0,0,22.78,4.22,83.55,83.55,0,0,0,23.1-.83c7.58-1.39,15.15-3.89,21.44-8.61"/><path d="M488.16,648.66c-3.46,19.74-7,39.46-10.21,59.24s-6.54,39.54-9.53,59.34c-6.05,39.61-11.67,79.28-16.42,119.06-5,39.74-9.2,79.59-12.95,119.48q-2.82,29.91-5.14,59.88c-1.67,20-3,40-4.45,60,.59-20,1.58-40.06,2.65-60.08s2.57-40,4.12-60c3.15-40,7.37-79.86,12.11-119.68,5.06-39.78,10.64-79.5,17.29-119.05s14.06-79,22.53-118.14"/><path d="M1565.82,819c-1.54,12.92-3.35,25.79-5.1,38.68l-5.81,38.57c-4,25.7-8.56,51.31-13.14,76.91-4.91,25.54-9.74,51.09-15.32,76.5l-8.52,38.07c-3,12.66-5.82,25.34-8.9,38,2.26-12.81,4.76-25.57,7.13-38.36l7.5-38.25q7.5-38.26,14.48-76.61c4.88-25.53,9.38-51.13,14-76.7Z"/><path d="M1901.49,827.69c-1.54,12.91-3.35,25.79-5.1,38.68l-5.81,38.57c-4,25.7-8.56,51.31-13.14,76.91-4.91,25.54-9.74,51.09-15.32,76.5l-8.52,38.07c-3,12.66-5.82,25.34-8.9,38,2.26-12.8,4.76-25.56,7.13-38.34l7.5-38.26q7.51-38.26,14.48-76.61c4.88-25.53,9.39-51.13,14-76.71Z"/><path d="M2187.42,832.24c-1.54,12.91-3.35,25.79-5.1,38.67l-5.81,38.57c-4,25.71-8.57,51.31-13.14,76.91-4.91,25.54-9.74,51.1-15.33,76.5l-8.51,38.07c-3,12.66-5.82,25.35-8.9,38,2.26-12.81,4.76-25.57,7.13-38.35l7.5-38.26q7.5-38.25,14.48-76.61c4.88-25.53,9.38-51.12,14-76.7Z"/><path d="M636,836.49c-.94,13-2.16,25.92-3.31,38.87l-4,38.8c-2.82,25.85-6.2,51.65-9.59,77.43-3.73,25.74-7.38,51.49-11.78,77.13l-6.76,38.42c-2.38,12.78-4.64,25.58-7.14,38.34,1.67-12.9,3.58-25.75,5.35-38.63l5.75-38.57q5.71-38.57,10.93-77.19c3.69-25.73,7-51.5,10.43-77.27Z"/><path d="M1057.26,771.06c1.67,18,2.9,36,3.93,54s1.67,36,2.3,54c.38,18,.83,36.06.73,54.1s-.33,36.06-.83,54.08c-.65-18-1-36-1.3-54.06s-.76-36-1.36-54c-.4-18-1.07-36-1.66-54Z"/><path d="M790.31,795.29c-2.59,5.06-5.17,10.07-7.44,15.23s-4.39,10.34-6.21,15.64-3.39,10.68-4.84,16.12-2.49,11-3.55,16.57a91.69,91.69,0,0,1,1.47-17A106.44,106.44,0,0,1,781,809.58a94.18,94.18,0,0,1,9.35-14.29"/><path d="M1425.5,799.33c-2.59,5.07-5.17,10.08-7.43,15.23s-4.39,10.35-6.21,15.65-3.4,10.68-4.85,16.12-2.48,11-3.54,16.57a92.65,92.65,0,0,1,1.46-17,106.17,106.17,0,0,1,11.23-32.25,94.71,94.71,0,0,1,9.34-14.3"/><path d="M753.66,1086.19a70.89,70.89,0,0,1-5.48,23.54,69.25,69.25,0,0,1-13.06,20.63,66.68,66.68,0,0,1-19.52,14.71,74.82,74.82,0,0,1-11.37,4.4,66.35,66.35,0,0,1-11.9,2.15,93,93,0,0,0,21.93-9,79.78,79.78,0,0,0,18.14-14.7,83.33,83.33,0,0,0,13.21-19.31,86.61,86.61,0,0,0,4.62-10.91,100.9,100.9,0,0,0,3.43-11.46"/><path d="M2052.36,787.38c-2.59,5.07-5.17,10.08-7.44,15.23s-4.38,10.35-6.21,15.65-3.39,10.68-4.84,16.12-2.48,11-3.54,16.57a91.78,91.78,0,0,1,1.46-17,106.88,106.88,0,0,1,4.31-16.58,104.78,104.78,0,0,1,6.92-15.67,93.46,93.46,0,0,1,9.34-14.3"/><path d="M2010.44,1077.31a70.83,70.83,0,0,1-5.48,23.54,69.25,69.25,0,0,1-13.06,20.63,66.81,66.81,0,0,1-19.52,14.71,75.88,75.88,0,0,1-11.37,4.4,66.35,66.35,0,0,1-11.9,2.15,92.3,92.3,0,0,0,21.92-9,79.62,79.62,0,0,0,18.15-14.7,83,83,0,0,0,13.2-19.31,84.62,84.62,0,0,0,4.63-10.91,100.29,100.29,0,0,0,3.43-11.46"/><path d="M2406.27,872.51a172.18,172.18,0,0,1-17.85,50.09A163.72,163.72,0,0,1,2355.87,965a123.1,123.1,0,0,1-10.28,8.65c-3.41,2.91-7.28,5.19-11,7.76A141.45,141.45,0,0,1,2311,993.93a167.23,167.23,0,0,1-25.45,8.18,159.16,159.16,0,0,1-26.38,3.65,182.52,182.52,0,0,0,50.7-14.43,162.33,162.33,0,0,0,43.51-29.08c1.6-1.5,3.25-2.93,4.8-4.48l4.52-4.77c3.12-3.09,5.72-6.64,8.58-10A198.66,198.66,0,0,0,2386,921.22a184.33,184.33,0,0,0,11.69-23.66,202.3,202.3,0,0,0,8.63-25"/><path d="M1272.16,860.47l-6.71,38-7,37.93L1244,1012.17l-3.8,18.93a155.51,155.51,0,0,0-3.18,18.87,125.75,125.75,0,0,0,1.86,38,77.94,77.94,0,0,0,6.38,17.88l2.34,4.14c.85,1.33,1.82,2.58,2.73,3.88a47.74,47.74,0,0,0,6.33,7.07c9.34,8.68,22.11,13.23,34.92,13.8-12.81-.12-25.9-4.2-35.82-12.79a48.85,48.85,0,0,1-6.67-7.12c-1-1.32-2-2.6-2.89-4l-2.49-4.21a80.46,80.46,0,0,1-6.91-18.22,122,122,0,0,1-2.29-38.71,158.53,158.53,0,0,1,3.1-19.17l3.68-18.91L1256.38,936l7.75-37.79Z"/><path d="M1769.05,782.11a222.68,222.68,0,0,1,6.34-45.71,108.4,108.4,0,0,1,7.83-21.86,42.43,42.43,0,0,1,6.55-9.72c2.72-2.78,6.43-5.08,10.36-4.84a14,14,0,0,0-9.34,5.74,41.53,41.53,0,0,0-5.64,9.73,144.45,144.45,0,0,0-7.08,21.64c-1.91,7.38-3.44,14.86-5,22.37s-2.76,15.07-4.07,22.65"/><path d="M1602,783.68a208.44,208.44,0,0,1,2-23,204.41,204.41,0,0,1,4.37-22.71,107.19,107.19,0,0,1,7.83-21.86,42.39,42.39,0,0,1,6.55-9.73c2.71-2.78,6.42-5.07,10.35-4.83a14,14,0,0,0-9.33,5.74,41,41,0,0,0-5.65,9.73,143.92,143.92,0,0,0-7.07,21.63c-1.92,7.39-3.45,14.87-5,22.38s-2.77,15.07-4.08,22.65"/><path d="M796.76,484.74a70.83,70.83,0,0,1,23.36,27.13,58,58,0,0,1,5,35.82,61.84,61.84,0,0,1-16.59,32.17,68,68,0,0,1-14.21,11.28,72.18,72.18,0,0,1-16.57,7c11-4.6,21.06-11.27,28.68-20.16a63.73,63.73,0,0,0,15.06-30.89,59.08,59.08,0,0,0-4-34,71.23,71.23,0,0,0-8.81-15.18,82.08,82.08,0,0,0-12-13.12"/><path class="cls-2" d="M1992.47,574.29l695.59-4.69q-1.83,8.67-3.67,17.34a147.6,147.6,0,0,0-45.31,11.78c-35.75,15.75-56,41.9-64.73,55A205,205,0,0,0,2535.69,621a209.63,209.63,0,0,0-88.13-32.09c21.06,17.42,30.59,43.05,24.05,65.16-1.26,4.27-8.72,27.33-31.14,33.38-14.81,4-34,0-44-14.42-6.7-9.62-9.33-23.83-3.44-35.59.57-1.12,8.7-16.78,21.91-16,5.55.32,13.58,3.64,15.74,11.13,2,7-2.42,13.17-3.06,14a18.76,18.76,0,0,0,10.76-3.94c9-7.38,6.29-21.72,6.06-22.84-2.9-14.2-21.34-25.56-45.8-27.42l-419.8,3.43,13.66-21.54"/><path class="cls-2" d="M2388.81,612q-4.87,12.44-9.75,24.89l-426.64,2.85,15.21-24.5L2388.81,612"/><path class="cls-2" d="M268.3,126.67c-.22,1.16-2.76,16,6.67,23.46A19.29,19.29,0,0,0,286.16,154c-.68-.9-5.36-7.16-3.42-14.44,2.08-7.79,10.31-11.37,16-11.78,13.65-1.07,22.34,14.95,22.93,16.11,6.3,12,3.85,26.74-2.88,36.8-10.11,15.06-29.82,19.58-45.21,15.74-23.25-5.82-31.37-29.51-32.77-33.89-7.17-22.71,2.21-49.35,23.61-67.75A217.16,217.16,0,0,0,174,129.59a212.89,212.89,0,0,0-39.29,34.52c-9.29-13.34-30.66-40-67.88-55.54a151.48,151.48,0,0,0-47-11.32c-1.38-5.93-2.74-11.88-4.13-17.85,228.62-2.6,460.58-4.65,689.17-7.29L679,93.79q-182,1.83-364,3.69c-25.23,2.37-44,14.48-46.75,29.19"/><path class="cls-2" d="M657,113.74l-35,27.39c-98.93,1.14-187,.8-286,1.94q-5.25-12.75-10.52-25.51c111-1.19,220.44-2.67,331.48-3.82"/></svg>