<svg id="Layer_1" data-name="Layer 1" xmlns="http://www.w3.org/2000/svg" viewBox="0 0 2419.2 1253.65"><defs><style>.cls-1{fill:#cba349;}</style></defs><path d="M976.35,39.35c93.34,17.3,228.31,77.22,209,193.64-9.52,52-56.23,98.62-103.26,118.05,59.56,18.3,99.13,92.65,90.6,151.07-12.45,85.37-91.92,163.83-181.66,164.32q-87.09-.15-174.19-.23s-1.76-11.74,11.31-11.72,15.08-56.76,16.05-59.86c7.88-131.36,28.15-261,44.81-391.48-.49-3,4.65-56.62-8.26-59a4.8,4.8,0,0,0-.85-.08,21.34,21.34,0,0,1-3.41-.31c-10.06-1.87-7.67-11.36-7.67-11.36q71.93.93,143.84,2s.58,11.52-13.48,11.32-21.59,57.12-22.66,58.63c-6.29,49-13.58,97.94-20.9,146.83l6.28-1.45c65.37-9.38,124.48-49.89,135.49-117.8,14.63-91.26-45.47-134.95-122.32-149.2-81.14-15-181,2.77-231.14,32.13C688.4,149.16,610.68,271.5,697.81,310.37a104.63,104.63,0,0,0,23.66,7.29c40.83,7.56,88.25-7,112.3-43.37,38.12,45.59-10.94,100.42-51.46,119.37-28.76,12.43-68.17,14.65-100.3,8.69-5.06-.94-10-2.08-14.59-3.41C558.2,367.41,565.14,231.72,621.87,155.28,702.11,49.27,843.93,17.05,970,38.21c2.11.36,4.24.73,6.4,1.14M925.22,634.41a171.11,171.11,0,0,0,18.9,1.6c68.09-1.27,133.9-67.42,142.94-131.44,8.34-59-41.79-122.34-101.71-133.44a102.47,102.47,0,0,0-12.6-1.54,123.64,123.64,0,0,0-19.61-1.73c-12.86,88.77-23.7,176.91-27.92,266.55m53.15-606c-2.23-.41-4.41-.8-6.59-1.16C857.29,8.06,702.93,29.83,613,148.59,573.82,201.43,560,273.9,578.62,329c13.66,40.48,43.31,68.35,85.73,80.59,4.94,1.42,10.21,2.66,15.64,3.67,36.66,6.79,77.56,3.18,106.72-9.42l.3-.13c28.19-13.19,62.08-43.45,69.92-78.75,4.61-20.8-.46-40.78-14.67-57.77a11.09,11.09,0,0,0-6.48-3.79,10.54,10.54,0,0,0-2.64-.16,11.06,11.06,0,0,0-8.62,4.95c-19.86,30.06-61.41,45.93-101,38.58a93.79,93.79,0,0,1-21.17-6.5c-20.46-9.13-31.06-23.4-32.42-43.63-3-44.09,41.16-108.38,79.73-132.32C795.77,97.39,891.89,78.54,973,93.59c59.94,11.1,128.27,43.81,113.4,136.55-10.49,64.7-66.07,97.33-117.55,107.15,7.06-47.3,13-88.19,18.48-130.56.38-1.45.76-3.44,1.34-6.53,5.77-30.48,10.14-40.35,12.59-43.48,8.37-.44,13.47-3.92,16.34-6.9a22.39,22.39,0,0,0,6.07-16,11.07,11.07,0,0,0-9-10.33,10.59,10.59,0,0,0-1.87-.19q-71.94-1-143.86-2a11.08,11.08,0,0,0-10.88,8.38c-.37,1.46-2,9.09,2.52,16.11,2.08,3.25,6.18,7.41,13.87,8.84.59.11,1.18.2,1.8.27,1.45,4,3,14.59,1.81,41.87-.12,2.93-.19,4.66-.18,5.93-3.75,29.29-7.74,59-11.6,87.79-13.26,98.84-27,201-33.11,302.7-.24,1.42-.42,3.41-.74,7.1-2.57,29-5.55,39.52-7.5,43.27a21.13,21.13,0,0,0-14.24,7.06c-6,7-5.07,15.57-4.82,17.22a11.1,11.1,0,0,0,11,9.44q87.07.08,174.17.23c45.47-.26,90.67-19.18,127.38-53.3,35.06-32.59,58.84-76.51,65.26-120.5,4.53-31-3.18-66.62-21.13-97.72-14.11-24.42-32.91-43.57-54.33-55.66,39.26-23.06,78.79-64.73,88.06-115.34,9.28-55.92-13.75-106-66.57-144.91-54.93-40.5-124.11-56.59-151.3-61.63m-15.71,351c3.22.31,5.91.71,8.32,1.1a10.36,10.36,0,0,0,1.12.12A92.25,92.25,0,0,1,983.33,382c55,10.2,100.11,69,92.76,121-8.69,61.53-72.85,120.74-132.06,121.91-2.22,0-4.67-.16-7.22-.39,4.65-88.13,15.46-172.65,25.85-245.11"/><path d="M1454.08,172s3.18,10.12-8.29,10.09-6.45,50.22-6.57,51.55c6.74,84.25,7.87,168.27,8.69,252.75,18.31-15.64,18.45-32.06,18.45-32.06,33.77,24.07,13.43,67.56-17.28,82.7.44,27.91.76,41.88,2,70,.53,1.29,4.29,48.93,16,51.1a5.29,5.29,0,0,0,.8.07,15.25,15.25,0,0,1,2.65.24c8.16,1.51,7.88,9.8,7.88,9.8q-59.25-.27-118.5-.51s-2-10,8.86-10c12.28,0,9.19-48.49,8.82-51.15-1.09-20.15-1.46-30.19-2-50.25-49.54,8.65-139.72,15.79-159.32,64-5.24,12.9-8.09,35.37-1,36.68a3.52,3.52,0,0,0,.66.06,13,13,0,0,1,2.39.21c7.72,1.43,4.12,9.87,4.12,9.87q-45.92-.15-91.83-.28s2-10.08,12.72-10c12.21,0,30.12-49.34,31.06-51.34,48.52-126,109.84-246.43,158.52-372.36,1-2.61,16.17-49.45,5.94-51.34a3.6,3.6,0,0,0-.66-.06,15.53,15.53,0,0,1-2.64-.23c-8-1.49-3.92-9.86-3.92-9.86q61.25.18,122.49.33M1238.17,561.44c41-27.57,88.9-38.15,136.57-47.93-1.34-83.49-1.67-166.86-6.24-250.26-40.68,100.62-88.12,198.23-130.33,298.19M1456.1,161.13a11,11,0,0,0-2-.19q-61.24-.13-122.49-.33a11.09,11.09,0,0,0-10,6.19c-.73,1.5-4.22,9.38-.45,16.88a16.2,16.2,0,0,0,10.09,8.23c-.54,9.38-5.92,29.53-8.78,37.37-24.06,62.22-51.76,124.33-78.56,184.4-27.24,61.08-55.41,124.23-79.93,187.88-.19.47-.46,1.14-.79,2-12.61,32.24-19.62,40.42-21.72,42.31-14.46.87-20.58,12.63-21.8,19A11,11,0,0,0,1130.54,678q45.92.12,91.82.28a11.1,11.1,0,0,0,10.23-6.74c.64-1.5,3.66-9.4-.25-16.69a16.41,16.41,0,0,0-10.3-8,65.68,65.68,0,0,1,4.46-22.29c14.68-36.16,83.83-46.82,129.58-53.87l8.78-1.36c.41,12.64.83,22.23,1.67,37.86,0,.32,0,.64.08,1,.91,8.22.86,30.94-1.76,38.79a18.56,18.56,0,0,0-11.89,6.5c-5.51,6.66-4.23,14.85-3.92,16.43a11.08,11.08,0,0,0,8.85,8.74,10.72,10.72,0,0,0,2,.19l118.48.5a11.07,11.07,0,0,0,11.12-10.68,20.6,20.6,0,0,0-16.92-21.09c-.54-.1-1.08-.18-1.63-.24-1.73-3-5.13-11.9-8.33-38.12-.19-1.54-.32-2.61-.45-3.44-1.15-25.66-1.5-39.47-1.87-62.22,19.26-12,32.82-32.5,34.48-53,1.46-18-6.35-34-22-45.14a11.84,11.84,0,0,0-4.68-2,10.6,10.6,0,0,0-7,1,11.29,11.29,0,0,0-2.58,1.87c-.94-74.22-2.68-143.21-8.26-213.06,0-.63-.07-1.43-.16-2.75-1.62-23.74-.46-33.68.49-37.66a17.86,17.86,0,0,0,11.52-6.93c5.27-7.15,3-15.53,2.51-17.14a11.08,11.08,0,0,0-8.55-7.57M1261.26,535.64c14.53-33.53,29.59-67,44.27-99.63,18-40.12,36.53-81.23,54.15-122.66,1.89,51,2.6,102.27,3.28,152.24q.27,19.46.55,38.92c-31.74,6.58-68.21,14.88-102.25,31.13"/><path d="M1717.38,176.68c73.78,13.67,143.45,60.39,130.21,147.44-7.28,68.59-19.36,136.58-32,204.29-13.74,73.34-73.5,141.07-152.23,140.71q-76.89-.4-153.79-.77s-.34-10,11.27-9.92,18.74-47.61,19.24-50.91c20-124.5,47.32-247.45,58.5-373.24.18-2.62,1.53-49.81-9.13-51.78a2.72,2.72,0,0,0-.7-.06,16.84,16.84,0,0,1-2.8-.25c-8.32-1.54-7-9.93-7-9.93q46.88.08,93.76.11a258.54,258.54,0,0,1,44.72,4.31m-108.63,465a140.82,140.82,0,0,0,16.56,1.42c59.56-.29,105.21-58,115.51-111.9,13.07-68.41,25.52-137.8,33.58-207.4,9.06-64.8-15.28-104-70.25-114.19a173.68,173.68,0,0,0-31.84-2.66c-7.48,147-41.7,289.59-63.56,434.73M1719.4,165.78a269.4,269.4,0,0,0-46.65-4.49q-47,0-93.84-.11a11.09,11.09,0,0,0-11,9.37c-1.44,9.23,3.65,20.25,15.94,22.53l.62.11c2.69,7.77,3.59,29.83,3,40.26-7.66,86.12-23.21,172.59-38.25,256.23-6.83,38-13.89,77.24-20.14,116.08-3.1,20.62-7.95,36.77-11.15,41.72a20.67,20.67,0,0,0-19.49,21.24,11.07,11.07,0,0,0,9,10.52,10.72,10.72,0,0,0,2,.19q76.89.36,153.78.77c40.14.18,77.59-15.69,108.32-45.9,28-27.52,47.48-64.4,54.86-103.85,12.13-64.78,24.6-134,32.14-204.91,6.51-43.32-5.84-81.56-35.75-110.6-24.59-23.89-61.32-41.35-103.43-49.16m-36.62,52.48a148.66,148.66,0,0,1,19.35,2.22c48.85,9.05,69.48,43.29,61.3,101.75,0,.09,0,.18,0,.26-8.13,70.25-20.88,140.81-33.45,206.6-9.63,50.37-51.41,102.64-104.67,102.9-1.29,0-2.55,0-3.81-.13,6.55-42.23,14.15-84.8,21.53-126.06,16.71-93.56,34-190.19,39.79-287.54"/><path class="cls-1" d="M1158.15,487.51c8.49-58.16-30.9-132.18-90.2-150.4,46.82-19.34,93.32-65.75,102.8-117.53C1190.43,101,1049.32,41.29,956.31,25.67,830.86,4.6,689.66,36.67,609.78,142.22c-56.48,76.1-63.39,211.19,45.35,242.57,33.87,9.79,81.23,9.08,114.38-5.24,40.34-18.88,89.18-73.46,51.22-118.85C792,304.25,729.6,316.36,685.38,296.63c-86.75-38.71-9.36-160.5,45.91-194.7C828.57,45,1113.13,31.69,1083.18,218.49c-11,67.6-69.81,107.94-134.89,117.27L942,337.21c7.29-48.67,14.55-97.36,20.81-146.18,1.06-1.5,8.55-58.56,22.55-58.37s13.42-11.27,13.42-11.27q-71.6-1-143.2-2s-2.88,11.43,11,11.61,8.58,55.79,9.08,58.85c-16.59,129.85-36.77,259-44.62,389.74-1,3.08-3,59.6-16,59.59s-11.26,11.66-11.26,11.66q86.7.07,173.41.23c89.34-.49,168.45-78.6,180.86-163.59M930.6,620.82a169.45,169.45,0,0,1-18.81-1.59c4.2-89.25,15-177,27.79-265.38a123.26,123.26,0,0,1,19.51,1.73c65,3.8,122.7,71.6,113.83,134.38-9,63.73-74.53,129.6-142.32,130.86"/><path class="cls-1" d="M1452,642.88c-12.26-.06-16.16-49.63-16.7-51-1.26-27.94-1.58-41.85-2-69.64,30.57-15.07,50.82-58.37,17.19-82.33,0,0-.13,16.35-18.36,31.92-.82-84.1-2-167.75-8.66-251.63.13-1.33-4.86-51.35,6.55-51.32s8.24-10,8.24-10l-121.94-.33s-4.92,10,6.53,10-4.24,48.53-5.25,51.17c-48.47,125.37-109.51,245.28-157.82,370.72-.94,2-18.77,51.14-30.92,51.1-10.72,0-12.67,10-12.67,10q45.72.12,91.43.27s4.26-10-6.48-10c-7.89,0-5-23.35.33-36.57,19.52-48,109.29-55.16,158.62-63.77.57,20,1,30,2,50,.37,2.64,3.44,51-8.79,50.91-10.79,0-8.81,9.94-8.81,9.94q59,.23,118,.5s.35-9.94-10.47-10m-228.7-96.3c42-99.52,89.26-196.69,129.76-296.87,4.55,83,4.88,166,6.21,249.15-47.46,9.74-95.12,20.28-136,47.72"/><path class="cls-1" d="M1830.06,310.31c15.86-104.24-87.67-150.37-174.15-151.07l-93.35-.11s-1.58,10.1,9.78,10.12,10,48.95,9.78,51.62C1571,346.1,1543.84,468.5,1523.88,592.46c-.49,3.28-7.6,50.73-19.15,50.68S1493.5,653,1493.5,653q76.56.35,153.11.76c78.38.36,137.89-67.07,151.56-140.08,12.62-67.42,24.65-135.11,31.89-203.39M1723.77,516.45c-10.25,53.67-55.7,111.1-115,111.39a137.36,137.36,0,0,1-16.49-1.4c21.76-144.5,55.83-286.46,63.27-432.81,76.87-.15,112.25,40.47,101.64,116.33-8,69.3-20.41,138.38-33.43,206.49"/><path d="M754.87,445.79c31.17,5.78,61.36,25.72,68.79,55.77C837.64,568.05,778.89,632.1,720,649c-38.63,11.1-79.79,8.82-120.61,1.25-36.84-6.83-73.41-18-107.56-27.42-21.08,175.53-54.53,349.24-66.16,525.85-.16,3.12-1.14,59,11.64,61.34a5.17,5.17,0,0,0,.89.08,14.86,14.86,0,0,1,2.86.23c9.07,1.69,8.3,11.71,8.3,11.71l-131.86.93s-1.69-12,10.38-12.12c13.67-.1,15.63-56.92,15.84-61.7,10.26-184.73,45-366.38,65.57-550-27-7.11-57.76-16-89.18-21.86-46.33-8.59-94.09-10.41-133.3,10.34C123.91,621,66.3,743.11,150.91,788a82.32,82.32,0,0,0,23.7,8.09c40.56,7.52,89.84-11.1,108.67-46.95,35.92,46.62-13.07,100.54-53.2,120.5-31,13.64-66.87,16.1-99.54,10-6-1.1-11.83-2.5-17.53-4.15-108-31.4-96.52-187.8-36.67-258.24,73.26-86.22,174-94.09,273.83-75.58,38.07,7.05,76,18,112.29,29.79,42.24,13.8,95.15,36.92,146.45,46.43,40.27,7.46,79.54,6.53,111.87-13.87,47.64-30.08,40.58-102.69-5.41-111.21-11-2-24.22-.41-39.45,6.34-.93-45.5,39.79-60.61,79-53.35m2-10.89h0c-28.2-5.23-54.2.12-71.35,14.68-14,11.85-21.12,29.07-20.7,49.79a11.09,11.09,0,0,0,15.57,9.9c12.33-5.47,23.41-7.34,32.94-5.58,14.29,2.65,24.73,14.17,27.94,30.82a58.72,58.72,0,0,1-26.43,60.13c-26,16.44-60,20.48-103.93,12.34-35.3-6.54-72.29-20-104.93-31.92-14.14-5.16-27.49-10-40.11-14.14C422.07,546.6,385.94,537,352.2,530.76c-126.11-23.37-219.1,2.57-284.3,79.31-41.23,48.52-58.52,131.08-40.21,192,12.93,43.07,41.37,72.12,82.23,84a190.19,190.19,0,0,0,18.61,4.41c37,6.86,74.63,3,106-10.79l.46-.22c29-14.44,61.93-44.68,70-79.72,4.72-20.47.24-40.34-12.95-57.46a11.11,11.11,0,0,0-6.76-4.13,11.11,11.11,0,0,0-11.83,5.74c-15.61,29.72-59.06,48.21-96.85,41.21a71.48,71.48,0,0,1-20.53-7c-24.28-12.86-36.58-33.36-36.58-60.91C119.53,668.52,157,616,192,597.45c31.14-16.48,71.2-19.41,126.1-9.24,24.75,4.59,49.74,11.31,71.8,17.25l7.32,2c-7.37,64.31-16.53,129.34-25.41,192.32-16,113.85-32.63,231.59-39.15,348.82l0,.6c-1.19,29.37-5.1,45.84-7.76,50.82a20.19,20.19,0,0,0-13.41,6.82c-6.08,7-5.17,16-4.93,17.74a11.08,11.08,0,0,0,8.94,9.36,11.34,11.34,0,0,0,2.11.18q65.93-.48,131.86-.93a11.09,11.09,0,0,0,11-10.22c.76-9.93-4.94-21.16-17.33-23.46q-.78-.15-1.59-.24c-3.77-8.29-5.39-36.63-4.75-50,7.37-112,23.91-225.17,39.9-334.58,8.5-58.16,17.27-118.17,24.63-177.69l6.53,1.84c29,8.19,59,16.65,89.57,22.32,50,9.27,89.92,8.79,125.69-1.49,32.26-9.28,63.21-30.8,84.91-59.07,24.24-31.55,33.67-67.55,26.56-101.34,0-.13,0-.26-.08-.38-7.82-31.6-38.25-56.72-77.53-64"/><path d="M802.23,712.44C791.63,766.82,755,812.21,739,864.76c-1.78,5.8-.2,10.14,2.67,11.59l.25-1.44c1.64-9.42,11.6-17.38,21.74-17.38a15.76,15.76,0,0,1,2.94.27,14.66,14.66,0,0,1,12,17.1c-1.79,10.13-12.32,21-26.28,25.33-6.56,2-14.72,3.17-22.34,1.76a27,27,0,0,1-15.45-8.26c-22.95-32.94,39.61-145-8.53-153.91a37.4,37.4,0,0,0-7.89-.55l-44.7,0c-12.88,87.19-28,174-41.48,261.13,7.7,0,59.5-1.56,61.34-13.16,1.73-10.88,13.1-9.45,13.1-9.45-4.71,29-7,43.51-11.07,72.6a14.34,14.34,0,0,1-3.94-.16c-3.24-.6-7.16-2.66-6.22-9.26.68-4.75-7.45-7.78-17.84-9.71-15-2.79-34.82-3.25-39.36-3.24-5.81,41.23-10.64,82.61-13.9,124.12l40.77-.19c53.26-3.43,77-73.78,84.14-116.92,4.67-28.18,32.36-24.54,38-23.5.65.12,1,.21,1,.21-27.61,51.89-27.51,109.92-21.22,166.85q-121.85.6-243.69,1.28s-1-11,11.06-11.11,16.58-52.19,17-56.58c11.48-111.64,30.37-222.1,47.41-333,.63-4.27,6.91-53.79-4.55-55.92a4,4,0,0,0-.78-.07,17.3,17.3,0,0,1-3.06-.26c-8.94-1.66-6.46-10.66-6.46-10.66q124.27.06,248.56.18m2-10.89a10.37,10.37,0,0,0-2-.19l-50.2,0-198.36-.15A11.08,11.08,0,0,0,543,709.32c-.4,1.46-2.2,9.12,2.15,16.07a18.72,18.72,0,0,0,13,8.42l.6.11c1.94,8.21.83,30.35-1.16,43.61q-5.16,33.66-10.5,67.37c-13.66,86.94-27.78,176.83-37,266.12l0,.36c-2.41,26.53-6.6,41.64-9.22,46.47a21,21,0,0,0-13.36,6.6c-6,6.54-5.58,14.77-5.44,16.35a11.1,11.1,0,0,0,11.1,10.12q121.85-.68,243.68-1.29a11.07,11.07,0,0,0,11-12.29c-5.55-50.3-7.53-108.7,20-160.43a11.12,11.12,0,0,0-7.19-16s-.57-.14-1.58-.33c-6.3-1.17-22.37-2.89-35.49,6.3-8.23,5.78-13.58,14.86-15.48,26.28-7.94,47.87-32,104.69-73.6,107.65l-28.34.13c2.75-32.09,6.53-65.54,11.48-101.64a219.64,219.64,0,0,1,27.73,2.8,52.82,52.82,0,0,1,8.7,2.21c.62,8.6,6.37,15.09,15.36,16.76a25.06,25.06,0,0,0,7.35.25,11.08,11.08,0,0,0,9.58-9.45c4.16-29.66,6.44-44.11,11-72.36a11.08,11.08,0,0,0-8.91-12.67c-.21,0-.42-.08-.63-.1-8.32-1-21.25,2.47-24.85,16-5.52,2.82-22.2,5.19-38,6.11,5.19-33.16,10.64-66.63,15.93-99.11C648.31,844.1,656,797,663,750.32l28.34,0h7.11a26.78,26.78,0,0,1,5.58.36c4.06.75,5.66,2.46,6.6,3.88,6.94,10.38.65,39.94-4.4,63.68-7,32.64-13.51,63.48-.75,81.8q.4.55.87,1.08A38.12,38.12,0,0,0,728,912.88c11.47,2.13,22.25-.39,27.66-2.08,17.38-5.42,31.31-19.39,33.88-34a25.66,25.66,0,0,0-20.85-29.92,27.3,27.3,0,0,0-4.95-.46,30.93,30.93,0,0,0-6.59.71c6.06-14.81,13.44-29.32,21.11-44.39,14.09-27.72,28.68-56.39,34.88-88.21a11.09,11.09,0,0,0-8.86-13m-4,21.78h0Z"/><path d="M1082.44,712.47s2.44,10.92-10,10.93-11.21,54.48-11.44,55.93c1.64,82.82.48,165.6.21,248.43,20.72-12.33,5.6-33.22,5.6-33.22a53.53,53.53,0,0,1,9.17.86c43.1,8,23.39,69-14.75,78.61.22,14.47.38,21.71.8,36.21-.23,1.41,2.39,53.53,14.53,55.78a4.76,4.76,0,0,0,.84.07,14.51,14.51,0,0,1,2.75.24c8.49,1.57,8,10.64,8,10.64l-123.23.55s-2.53-10.93,9.58-11,11-53.14,10.66-56c-.63-18-.84-27-1.16-44.94a122.07,122.07,0,0,0-19.23-5.22c-43.64-8.09-88,8.83-104.13,52.76-3.82,10.4-16.54,52.16-7.15,53.9a3.42,3.42,0,0,0,.65.06,14.64,14.64,0,0,1,2.81.23c8.47,1.57,4.4,10.7,4.4,10.7l-96.66.45s2.47-11,13.82-11c12.85-.06,32.52-53.41,33.65-56.32,42.69-112,92.36-221,138.33-331.71,1.22-2.83,20.8-53.69,9.18-55.84a3.37,3.37,0,0,0-.79-.07,14.14,14.14,0,0,1-2.59-.22c-8.26-1.53-3.75-10.7-3.75-10.7q65,0,129.91,0M888.22,1042.61c30.33-9.75,58.39-18.68,90-12.81q2.44.45,4.92,1c-.21-69.58.37-139.16-.2-208.74-31.49,73.56-64,146.68-94.77,220.53m196.25-341a11.55,11.55,0,0,0-2-.19q-64.95.06-129.9.05a11.09,11.09,0,0,0-9.95,6.19c-.78,1.59-4.49,9.94-.6,17.69a16.3,16.3,0,0,0,10.24,8.31c-.91,9.83-7.8,31.59-11.93,41.36-16,38.56-32.72,77.47-48.86,115.1-30.35,70.68-61.71,143.77-89.63,217l-.28.75c-11.55,30.32-20.82,45.2-24.75,48.49-14.77.93-21.43,13.1-22.9,19.63a11.09,11.09,0,0,0,8.79,13.34,10.92,10.92,0,0,0,2.07.18l96.66-.45a11.08,11.08,0,0,0,10.07-6.57c.7-1.56,4-9.76,0-17.35a16.77,16.77,0,0,0-10.25-8.22c.6-8.88,5.33-27.75,9.84-40,15.9-43.33,59.34-51.69,91.7-45.69q5.19,1,10.33,2.44c.25,13,.48,21.81,1,37.21a5.34,5.34,0,0,0,0,.69c.67,9.35-.34,35.69-3.6,44.17a19.3,19.3,0,0,0-12.8,7c-5.6,7.06-4,15.59-3.62,17.23a11.08,11.08,0,0,0,8.77,8.4,11.92,11.92,0,0,0,2.08.19l123.23-.56a11.08,11.08,0,0,0,11-10.42c.56-9.36-5.1-20-17-22.2-.54-.1-1.1-.18-1.67-.25-4.21-7.71-7.4-34.67-7.4-44.41,0-.28,0-.57,0-.86-.35-11.7-.51-18.64-.67-28,24.45-10.61,39.69-37.83,39-59.65-.62-19.84-13.12-33.93-33.45-37.7-1.77-.33-3.61-.59-5.5-.76,0-5.3,0-10.6.09-15.91.36-61.68.73-125.46-.5-188.29,0-.6,0-1.41,0-2.69.24-28.35,2.83-39,4.22-42.64a19.64,19.64,0,0,0,13.13-7.08c5.62-7,4.09-15.47,3.73-17.09a11.08,11.08,0,0,0-8.78-8.47M907.62,1025c16.53-39.16,33.59-78.45,50.17-116.66,4.73-10.92,9.54-22,14.36-33.12,0,23.68,0,47.32,0,70.49,0,23.59-.07,47.86,0,71.95-22.77-2.61-44,1.5-64.46,7.34"/><path d="M1435.22,711.28c-8.78,54.66-45,100.58-61.43,152.69-1.83,5.79-.37,10.11,3.18,11.54.11-.57.16-.86.27-1.44,1.77-9.39,10.87-17.37,20.79-17.4a18.29,18.29,0,0,1,3.19.28c8,1.49,12.71,8.68,11.15,17-2,10.83-13.22,21.08-26.23,25.33-6.41,2.09-14.15,3.22-21.51,1.86a27.65,27.65,0,0,1-15.45-8.24c-23.81-33.54,32-146.42-8.21-153.87a26.4,26.4,0,0,0-6.36-.32c-36.94,2.18-61.76,50.41-69.56,85.84-14.78,80-31.73,159.64-47.16,239.56-5.09,27.4,3.2,72,32.74,77.44a34.11,34.11,0,0,0,5.45.55c37.54.79,107.51-90.84,49.36-104.23,8.22-20.6,25.43-27.36,41.58-24.36,21.74,4,41.57,25.75,34.91,55.16-13.89,61.37-67.27,107.3-131.72,107.57a114.6,114.6,0,0,1-21.32-2c-51.39-9.53-101-52.77-87.32-109.94,15.17-79.95,32-159.57,46.89-239.59,12.62-67,80.51-109.19,144.86-113l101.9-.49m2-10.89a10.22,10.22,0,0,0-2.07-.18l-101.91.48c-.2,0-.4,0-.6,0-66.39,3.93-141,47.1-155.09,122-8,43.31-16.82,87.24-25.3,129.72-7.17,35.89-14.59,73-21.54,109.61A88.23,88.23,0,0,0,1142.9,1132c17.43,26.82,48.82,46.72,84,53.23a125.91,125.91,0,0,0,23.39,2.15c68.46-.28,127.06-48.07,142.48-116.21,3.59-15.83.94-31.57-7.46-44.31a55.91,55.91,0,0,0-36.24-24.19c-23.45-4.34-44.6,7.89-53.89,31.15a11.07,11.07,0,0,0,7.81,14.91c10.79,2.48,14.68,7.57,13.44,17.57-3.46,27.79-41.29,65.18-60.09,64.79a22.8,22.8,0,0,1-3.66-.37c-11.54-2.14-17.73-13.76-20.87-23.14a87.55,87.55,0,0,1-3-41.4c6.33-32.8,13.06-66.21,19.56-98.51,9.28-46.11,18.87-93.77,27.57-140.86,8-36.12,31.51-75.34,59.36-77a15.24,15.24,0,0,1,3.68.16c10.87,2,4.51,37-.13,62.5-6.33,34.81-12.3,67.67,1.33,86.88a10.66,10.66,0,0,0,.95,1.16,38.43,38.43,0,0,0,21.51,11.56c10.63,2,20.53-.12,27-2.22,17.41-5.69,31-19.28,33.68-33.82a26,26,0,0,0-3.89-19.62,24.86,24.86,0,0,0-16.13-10.33,28.56,28.56,0,0,0-5.25-.47,30.69,30.69,0,0,0-5.84.6c5.61-13.45,12.24-26.73,19.11-40.51,14.52-29.09,29.53-59.17,34.9-92.64a11.08,11.08,0,0,0-8.92-12.65"/><path d="M1769.94,709.53s.79,11-10.47,11.07c-12.78.07-19,57.16-19,57.16-9,69.36-21.28,137.84-34.93,206.43,14.61-8,10.79-19.48,10.79-19.48a56.33,56.33,0,0,1,7.64.86c41.8,7.75,12.33,60.16-19.84,66.9-3.06,0-6.27.73-8.56.74-6.13,30-9.21,45-15,75,0,0-9.16,53.34,2.62,55.53a3.42,3.42,0,0,0,.78.06,15.67,15.67,0,0,1,2.63.22c8.25,1.53,5.39,10.62,5.39,10.62q-62.45.19-124.9.42s1.05-10.87,12.48-10.9c13-.05,23.27-52.84,23.82-55.72,6-31.55,12.41-63,18.87-94.49a96.71,96.71,0,0,0-13-3.39c-45-8.35-80.73,20.85-90.7,66.38-2.49,12.7-3.71,19-6.09,31.77,0,0-8.71,53.41,3.08,55.59a4.91,4.91,0,0,0,.78.08,15.44,15.44,0,0,1,3,.24c8.65,1.6,5.92,10.59,5.92,10.59l-124.71.46s.17-10.89,12.34-10.93,22-52.91,22.54-55.79c20.94-110.3,45.35-219.84,62.1-330.89.39-2.85,5.78-54-5.33-56a3.54,3.54,0,0,0-.73-.06,16.26,16.26,0,0,1-2.94-.24c-8.68-1.61-6.54-10.69-6.54-10.69q61.76-.3,123.49-.63s.57,11-11.49,11.05c-12.8.07-20,57-20,57-10.73,74.06-24.8,147.27-39.71,220.59l12.81-6.52c32.39-15.6,57.16-11.86,79.61-7.7l1.45.28c13.86-69,26.57-138,36-207.76.36-2.86,4.85-54-6.91-56.15a4.47,4.47,0,0,0-.82-.07,14.37,14.37,0,0,1-2.66-.22c-8.36-1.55-7-10.72-7-10.72l123.13-.68m2-10.9a11.13,11.13,0,0,0-2.09-.18l-123.13.68a11.06,11.06,0,0,0-10.89,9.45c-1.42,9.57,3.68,21,15.93,23.24l.59.1c2.55,8.34,2.16,32.69.82,44.1-7.79,57.36-18.27,118.32-33.79,196.32-21.22-3.35-43.14-4.13-69.82,6.95,12.2-60.76,25.34-130,35.36-199.22l0-.21c2.58-20.43,7.92-41.52,11.86-47.46a21.56,21.56,0,0,0,13.83-6.52,22.66,22.66,0,0,0,5.85-16,11.08,11.08,0,0,0-9-10.32,10.35,10.35,0,0,0-2.09-.18l-123.48.63a11.08,11.08,0,0,0-10.73,8.53c-.35,1.47-1.85,9.14,2.6,16a18.66,18.66,0,0,0,12.7,8.16l.32.06c2.13,8.69,1.24,32.61-.27,43.86-11.46,76-26.82,152.72-41.68,227-6.78,33.84-13.78,68.84-20.34,103.37-3.81,20.82-10.14,41.32-14.31,46.9a22.37,22.37,0,0,0-20.75,21.71,11.09,11.09,0,0,0,9.06,11.07,10.06,10.06,0,0,0,2.06.18l124.7-.45a11.05,11.05,0,0,0,10.56-7.86c.46-1.49,2.49-9.26-1.79-16.31a18.14,18.14,0,0,0-12.71-8.4l-.21,0c-1.41-7.37-.5-25.83,2.29-43.07,2.37-12.65,3.59-19,6-31.43,9.14-41.47,40.4-64.67,77.84-57.73.68.13,1.37.26,2.06.41-5.25,25.61-11.15,54.81-16.82,84.49-3.93,20.58-10.81,41.57-15.2,46.81-14.18,1.16-20.48,12.85-21.25,20.83a11.08,11.08,0,0,0,9,12,10.81,10.81,0,0,0,2.06.19l124.9-.43a11.07,11.07,0,0,0,10.53-7.75c.49-1.53,2.66-9.49-1.61-16.6a17.81,17.81,0,0,0-12.15-8.19c-1.34-7.38-.27-25.81,2.67-43,5.25-27.08,8.18-41.49,13.33-66.68a10.4,10.4,0,0,0,1.64-.22c25.61-5.37,49.56-33.17,49.28-57.21-.19-16.27-11.29-28-29.7-31.43-1.06-.19-2.15-.37-3.28-.51,12.89-67,21.9-122,28.75-175l0-.22c2.21-20.35,7.12-41.4,10.93-47.45a20.43,20.43,0,0,0,12.92-6.34c6-6.48,5.73-14.83,5.61-16.44a11.07,11.07,0,0,0-9-10.1"/><path d="M2051.89,707.8c-4.28,54.54-37.23,102.14-51.34,154-1.6,5.81,0,10.16,2.83,11.6.09-.58.13-.87.22-1.45,1.42-9.44,10.9-17.47,20.76-17.51a14.78,14.78,0,0,1,2.84.25,15,15,0,0,1,12.1,17.12c-1.51,10.17-11.63,21.07-25.25,25.48-6.38,2.07-14.35,3.22-21.81,1.84a26.2,26.2,0,0,1-15.17-8.23c-22.47-32.77,34.76-145.58-14.33-154.68a39.27,39.27,0,0,0-7.69-.57l-42.76.24c-7.32,88.34-21.76,174.58-38.85,261.51,7.65,0,59.2-1.6,61.47-13.15,2.13-10.82,13.3-9.42,13.3-9.42-5.6,28.88-8.57,43.29-14.45,72.12a14.42,14.42,0,0,1-3.92-.15c-3.2-.6-7-2.64-5.65-9.19,1-4.72-7-7.72-17.27-9.62-14.84-2.75-34.5-3.2-39-3.19-8.35,40.83-16.74,81.66-24.54,122.6l41.25-.12c54.17-3.53,83.75-70.65,93.56-115.58,6.09-28,33.3-24.4,38.84-23.37l1,.2c-28.75,50.65-33.91,108-33,165.16l-247.22.78s.4-10.85,12.61-10.88,22.65-51.33,23.5-55.66c22.07-110.14,45.41-219.74,58.93-331.35.46-4.29,3.86-54.24-7.25-56.29a3.67,3.67,0,0,0-.75-.07,16.15,16.15,0,0,1-2.93-.24c-8.7-1.61-6.92-10.73-6.92-10.73q118.49-.71,237-1.47m2-10.89a11.29,11.29,0,0,0-2.09-.19q-118.49.76-237,1.46a11.1,11.1,0,0,0-10.81,9c-.28,1.46-1.46,9.07,3.09,15.75a19,19,0,0,0,12.69,8l.64.11c2.58,8.57,2.48,33.31,1.29,44.43-11.83,97.65-31.64,195.82-50.8,290.76q-4,19.79-8,39.58c-4.11,20.88-10.8,41.42-15.14,46.86a22.41,22.41,0,0,0-21.18,21.45,11.08,11.08,0,0,0,9,11.3,11.78,11.78,0,0,0,2.06.19q123.6-.4,247.22-.78a11.06,11.06,0,0,0,11-11.25c-.75-50,2.41-108.1,31.6-159.52a11.13,11.13,0,0,0-7-16.24s-.56-.14-1.57-.32c-19.83-3.68-45.27,2.47-51.69,31.9-8.31,38.13-35.17,103.45-83.12,106.87l-27.44.07c6.49-33.53,13.4-67.34,20.12-100.18a220.32,220.32,0,0,1,28,2.78,55.26,55.26,0,0,1,7.95,2,17.62,17.62,0,0,0,2.93,9.32,18,18,0,0,0,12,7.52,25.3,25.3,0,0,0,7.31.26,11.07,11.07,0,0,0,9.48-8.78l1.14-5.56c5.22-25.57,8.1-39.66,13.34-66.66a11.07,11.07,0,0,0-8.86-13l-.64-.1c-8.12-1-21,2.46-24.94,15.8-5.36,2.84-21.89,5.24-37.67,6.21,18.13-93.83,29.22-168.5,35.48-238.94l32.65-.18a27.87,27.87,0,0,1,5.61.39c3.59.66,10.26,1.9,11.35,18.86.9,14-2.4,33.11-5.59,51.59-5.5,31.83-10.69,61.89,1.44,79.59a10.52,10.52,0,0,0,.87,1.1A37.4,37.4,0,0,0,1990.23,910c11.32,2.1,21.93-.47,27.24-2.2,17.12-5.54,30.61-19.68,32.79-34.38a26.12,26.12,0,0,0-26-30.08,30.58,30.58,0,0,0-6.48.74c4.56-12.6,9.94-25.13,15.52-38.13,13.2-30.73,26.86-62.51,29.59-97.32a11.08,11.08,0,0,0-9-11.76"/><path d="M2257,709.24c75.76,14,142,82,130.67,163.33-10,72-68.18,132.06-135.83,155.51,14.32,31.4,21.33,47.08,35.42,78.45,0,0,24.28,52.83,37.53,55.29a6,6,0,0,0,.94.09,17.7,17.7,0,0,1,3.44.3c9.41,1.74,12,10.46,12,10.46l-124.65.36s-6.28-10.8,5.19-10.83c12.24,0-10-52.59-11.74-55.46-10.9-28.67-23.08-65.43-56.53-71.9-5.77,28.85-8.77,43.26-14.64,72.09-.58,2.82-9.24,53.36,1.89,55.43a4.32,4.32,0,0,0,.73.06,15.43,15.43,0,0,1,3,.25c8.64,1.6,5.63,10.55,5.63,10.55l-125.31.37s.54-10.83,12.77-10.87,23.16-51.25,24-55.57c22.47-110.18,44.33-219.85,54.52-332,.33-4.31,2-54.52-9.16-56.58a4.65,4.65,0,0,0-.75-.07,15.44,15.44,0,0,1-2.93-.24c-8.7-1.61-7.29-10.78-7.29-10.78q67-.45,133.91-.92a156.41,156.41,0,0,1,27.22,2.65m-98.58,300.35,6.88,0c73.75-1.08,138.31-66,147.55-137.4,8-61.58-31.45-124.88-92.57-136.2a108.11,108.11,0,0,0-19.83-1.79,21.18,21.18,0,0,0-6.75.79c-4.3,92.83-17.93,183.41-35.28,274.62M2259,698.35h0a167.7,167.7,0,0,0-29.14-2.84q-67.23.48-134.08.92a11.08,11.08,0,0,0-10.87,9.4c-1.48,9.59,3.7,21,16.21,23.36l.87.14c3,8.62,3.7,34.73,2.95,44.94-9.76,107.34-29.52,209-54.33,330.67-4.08,20.1-11.25,41.4-15.62,46.81a22.59,22.59,0,0,0-21.39,21.29,11,11,0,0,0,3,8.19,11.1,11.1,0,0,0,6,3.26,11.66,11.66,0,0,0,2,.18l125.31-.37a11.07,11.07,0,0,0,10.47-7.55c.5-1.49,2.8-9.32-1.4-16.47a18.21,18.21,0,0,0-12.59-8.49c-1.44-8.9.92-31.57,3.14-42.65,1.77-8.74,3.29-16.16,4.7-23.05,2.53-12.35,4.71-23,7.46-36.65,18.43,9.89,27.73,34.57,36.09,56.73l1.71,4.51a10.45,10.45,0,0,0,.69,1.48c3.2,6.28,12,29.4,13.73,40.24a15.54,15.54,0,0,0-8.24,6.84c-4.78,8.33.11,17.59,1.14,19.36a11.07,11.07,0,0,0,7.56,5.32,10.79,10.79,0,0,0,2.05.19l124.66-.35a11.09,11.09,0,0,0,10.59-14.22,27,27,0,0,0-20.59-18.23,29.25,29.25,0,0,0-4-.45c-5.8-4-19.44-26.32-29.85-48.95l-4.81-10.71c-9.67-21.57-16.05-35.75-25.68-57,70-28.64,122.31-91.66,131.81-160.16,5.71-41.14-6.8-82.19-35.23-115.59-26.2-30.79-64.25-52.72-104.39-60.15m-54.74,47a95.36,95.36,0,0,1,14,1.53c53.66,9.95,91.16,65.52,83.61,123.89-8.54,66-67.23,122.77-130,127.44,18.29-98.32,28.42-177.28,32.44-252.86"/><path class="cls-1" d="M426.13,1198.16c-13.72.09-12.7-58.25-12.53-61.43,11.62-176.67,45.09-350.43,66.18-526,72,20,154.73,47.31,228.24,26.18,59-16.94,117.71-81,103.73-147.53C795,421.51,662.29,405.2,664,486.93c79-35,103.92,67.63,44.87,104.9-73.53,46.42-183-7.92-258.41-32.56-131.39-42.92-285-73.33-386.24,45.81C4.31,675.54-7.13,832,100.86,863.39c36.94,10.74,80.47,10.24,117.11-5.89,40.15-20,89.15-73.9,53.22-120.54-22.73,43.29-89.81,61.46-132.42,38.88-84.63-44.86-27-167.06,35.89-200.36,65.82-34.84,155.73-6.06,222.56,11.52-20.55,183.7-55.34,365.41-65.6,550.2-.21,4.78-2.17,61.62-15.85,61.72-12.07.08-10.38,12.13-10.38,12.13q66-.49,131.9-.94s.93-12-11.16-11.95"/><path class="cls-1" d="M746,999.67s-33.82-8.12-39,23.3c-7.16,43.16-30.88,113.53-84.16,117l-40.78.19c3.26-41.52,8.09-82.92,13.9-124.16,7.68,0,58.89,1.32,57.22,13-1.55,10.91,10.17,9.43,10.17,9.43,4.08-29.1,6.35-43.62,11.07-72.63,0,0-11.37-1.43-13.1,9.45-1.85,11.61-53.66,13.16-61.36,13.17,13.45-87.14,28.61-174,41.5-261.22l44.7,0c62.38-1.71-7.66,120,16.43,154.51,9.81,10.86,26.28,10.1,37.8,6.51,14-4.37,24.5-15.21,26.29-25.34,1.66-9.41-5.53-17.38-14.91-17.38-10.15,0-20.11,8-21.75,17.38l-.25,1.45c-2.87-1.45-4.45-5.79-2.67-11.6,15.95-52.56,52.61-98,63.21-152.37q-124.32-.09-248.64-.18s-3,10.92,9.52,10.92,6,51.65,5.33,56c-17,110.92-35.94,221.42-47.42,333.09-.41,4.4-5,56.54-17,56.61s-11.06,11.11-11.06,11.11q121.87-.69,243.77-1.29c-6.29-56.94-6.39-115,21.22-166.9"/><path class="cls-1" d="M1065.61,1154.09c-12.87.05-15.6-54.43-15.37-55.88-.43-14.5-.58-21.74-.81-36.22,40.62-10.19,60.37-78.77,5.58-79.49,0,0,15.13,20.89-5.59,33.22.27-82.85,1.42-165.65-.21-248.5.23-1.45-1-55.94,11.44-56s10-10.94,10-10.94q-65,.07-130,0S935.28,711.3,947,711.3c13.27,0-7.14,53-8.4,55.94-46,110.7-95.67,219.77-138.36,331.81-1.14,2.91-20.82,56.28-33.68,56.34-11.34,0-13.82,11-13.82,11l96.7-.45s4.9-11-7.21-10.94c-10.6,0,2.59-43.35,6.49-54,18.52-50.44,74.27-65.29,123.42-47.54.31,18,.52,26.94,1.16,45,.31,2.89,1.45,56-10.67,56.06s-9.59,11-9.59,11l123.28-.56s.65-10.92-10.71-10.87M876.33,1030.58c30.81-73.87,63.3-147,94.8-220.59.57,69.6,0,139.2.2,208.8-33.72-7.81-63.11,1.54-95,11.79"/><path class="cls-1" d="M1293.68,1025.86c58.18,13.39-11.83,105.05-49.38,104.27-34-.71-43.59-49-38.2-78,15.44-79.94,32.4-159.57,47.18-239.64,7.81-35.44,32.63-83.68,69.59-85.87,52-3.08-10.37,119.1,14.57,154.23,10.13,10.8,25.66,10.08,37,6.39,13-4.25,24.21-14.5,26.24-25.34,1.76-9.39-4.43-17.33-14.35-17.3s-19,8-20.79,17.41c-.11.57-.16.86-.28,1.44-3.54-1.43-5-5.76-3.17-11.55,16.45-52.12,52.66-98,61.45-152.73l-101.94.48c-64.37,3.82-132.28,46-144.9,113-14.87,80-31.73,159.69-46.91,239.67-15.57,65.11,50.93,112.17,108.68,111.94,64.47-.27,117.87-46.22,131.77-107.61,11.59-51.26-57.22-79.17-76.53-30.81"/><path class="cls-1" d="M1692.55,1020.44c34-7.12,64.94-65.14,12.2-67.79,0,0,3.82,11.52-10.79,19.49,13.65-68.6,26-137.11,34.94-206.49,0,0,6.19-57.11,19-57.18,11.27-.06,10.48-11.08,10.48-11.08l-123.17.68s-1.63,11,9.66,10.95c12.79-.07,8.1,53.31,7.73,56.23-9.48,69.8-22.19,138.77-36.06,207.83-22.85-4.26-48-8.52-81.08,7.43L1522.6,987c14.92-73.35,29-146.59,39.72-220.66,0,0,7.19-57,20-57,12-.06,11.48-11.05,11.48-11.05l-123.52.63s-2.6,11,9.48,10.92,6.46,53.2,6.06,56.11c-16.75,111.09-41.18,220.67-62.12,331-.53,2.89-10.37,55.77-22.55,55.81s-12.34,10.93-12.34,10.93l124.75-.45s3.31-10.88-8.88-10.84c-13,0-3.86-55.69-3.86-55.69,2.38-12.72,3.61-19.07,6.09-31.78,10.92-49.84,52.62-80.11,103.71-63-6.47,31.47-12.85,63-18.87,94.52-.56,2.88-10.88,55.69-23.84,55.74-11.43,0-12.48,10.91-12.48,10.91l124.94-.43s3.42-10.87-8-10.83c-13,0-3.4-55.62-3.4-55.62,5.82-30,8.9-45,15-75,2.3,0,5.51-.73,8.57-.74"/><path class="cls-1" d="M1966.63,1019.69c-9.8,44.94-39.39,112.08-93.59,115.61l-41.26.13c7.8-41,16.2-81.79,24.55-122.65,7.65,0,58.66,1.29,56.31,12.82-2.21,10.82,9.57,9.35,9.57,9.35,5.89-28.85,8.85-43.26,14.46-72.15,0,0-11.18-1.4-13.31,9.43-2.27,11.54-53.83,13.13-61.49,13.15,17.1-87,31.54-173.23,38.86-261.6l42.77-.24c62.4-1.17-1.5,121,22,155.3,9.65,10.84,25.76,10,37,6.39,13.62-4.41,23.74-15.31,25.26-25.48a15,15,0,0,0-15-17.38c-9.87,0-19.34,8.07-20.76,17.51l-.23,1.46c-2.81-1.44-4.43-5.79-2.83-11.61,14.11-51.9,47.08-99.51,51.36-154.06q-118.52.76-237.05,1.46s-2.15,11,9.86,11,8.47,52,8,56.38c-13.53,111.64-36.88,221.27-59,331.45-.85,4.33-11.3,55.64-23.51,55.68s-12.61,10.89-12.61,10.89q123.64-.4,247.3-.79c-.86-57.13,4.3-114.54,33.06-165.21,0,0-33-8-39.85,23.18"/><path class="cls-1" d="M2314.3,1149.91c-13,0-38.48-55.38-38.48-55.38-14.1-31.38-21.12-47.07-35.43-78.49,67.67-23.46,125.88-83.55,135.87-155.55,12.62-91-71.69-165.27-158-166q-67,.48-133.94.92s-1.72,11.11,10.22,11,10.25,52.25,9.91,56.66c-10.19,112.16-32.06,221.87-54.53,332.08-.88,4.33-11.82,55.56-24,55.6s-12.77,10.87-12.77,10.87l125.35-.37s3.65-10.84-8.59-10.8-3.21-52.63-2.62-55.51c5.87-28.84,8.87-43.26,14.65-72.12,33.45,6.48,45.64,43.25,56.54,71.93,1.72,2.87,24,55.43,11.75,55.47-11.48,0-5.19,10.83-5.19,10.83l124.69-.35a15.88,15.88,0,0,0-15.43-10.78M2153.82,997.53l-6.89,0c17.35-91.25,31-181.86,35.3-274.72a21.15,21.15,0,0,1,6.75-.79c72.2-.13,121.25,70,112.44,138-9.25,71.42-73.83,136.36-147.6,137.44"/><path d="M723.78,348.56a108.18,108.18,0,0,1-55.57-5,90,90,0,0,1-43.67-35.14,102.33,102.33,0,0,1-15.81-53.9,115.32,115.32,0,0,1,3.2-28A124,124,0,0,1,622,200.27c-7.34,17.16-11.33,35.69-10.43,54.14a101.85,101.85,0,0,0,16.06,52c9.7,15.58,24.65,27.52,41.62,34.52a105.4,105.4,0,0,0,26.69,7,119.86,119.86,0,0,0,27.83.64"/><path d="M1624.42,229c-4.2,31.91-8.79,63.75-13.45,95.58L1596.55,420l-15.26,95.29-7.94,47.6L1565,610.41l6.53-47.82,6.92-47.77,14.42-95.42,15.28-95.3c5.24-31.74,10.54-63.48,16.24-95.15"/><path d="M1443.28,482.16c-5.24,9.23-13.39,16.47-22,22.55a109.43,109.43,0,0,1-28.75,13.62c-2.49.95-5.11,1.44-7.67,2.18a67.31,67.31,0,0,1-7.79,1.73c-2.62.45-5.23,1-7.86,1.37l-7.92.89c-10.52,1.17-20.9,2-31.25,3.8a325.87,325.87,0,0,0-60.88,15.24,284.79,284.79,0,0,0-29.07,12,207.54,207.54,0,0,0-27.51,15.36c16.73-12.91,35.93-22.33,55.6-30s40.41-12.77,61.29-16.22c10.44-1.71,21.08-2.45,31.51-3.49a165.09,165.09,0,0,0,30.73-5.54,108.32,108.32,0,0,0,28.59-12.42c8.84-5.48,17.1-12.29,23-21"/><path d="M918.6,207.5c-2.64,32.07-5.68,64.1-8.78,96.12l-9.77,96-10.62,95.93-5.61,47.93-6,47.89L882,543.3l4.58-48,9.78-96L907,303.32c3.7-32,7.45-63.91,11.6-95.82"/><path d="M1770.49,556.81a130.85,130.85,0,0,1-8,18.55,141.77,141.77,0,0,1-10.88,17.12A132.86,132.86,0,0,1,1722.73,621a135.63,135.63,0,0,1-36.16,18.46,131.88,131.88,0,0,1-39.78,6.84,161.58,161.58,0,0,0,19.75-3.64,150.27,150.27,0,0,0,19.08-5.88,155.46,155.46,0,0,0,35-18.77,151.27,151.27,0,0,0,28.81-27.26,163.89,163.89,0,0,0,21.11-33.94"/><path d="M1388.24,244.48c1.68,18,2.91,36,3.93,54s1.68,36,2.31,54.05c.38,18,.82,36,.73,54.09s-.34,36.06-.83,54.09c-.66-18-1-36.05-1.31-54.07s-.76-36-1.36-54c-.39-18-1.07-36-1.65-54Z"/><path d="M167.22,828.17a104.61,104.61,0,0,1-56-3.93,89.18,89.18,0,0,1-44.49-35.43A100.77,100.77,0,0,1,51,734.14a109.26,109.26,0,0,1,3.67-28.22,119.37,119.37,0,0,1,10.78-26c-6.87,17.4-10.28,35.88-9.26,54.11a104.19,104.19,0,0,0,4.75,26.74A98.06,98.06,0,0,0,72.32,785.2,84.43,84.43,0,0,0,90.1,805.35a92.07,92.07,0,0,0,23,14.08,111.21,111.21,0,0,0,26.35,7.39,123.46,123.46,0,0,0,27.74,1.35"/><path d="M1069.06,1021.92c-5.36,7.1-12.9,12.38-21,16.22a69.8,69.8,0,0,1-26.16,5.92,87.68,87.68,0,0,1-26.67-3.42,252.94,252.94,0,0,0-25.61-6.3,169.72,169.72,0,0,0-52.3-2.19,135.6,135.6,0,0,0-25.71,5.46,102.21,102.21,0,0,0-24.1,10.69c14.36-10.52,31.85-16.23,49.43-19s35.8-1.81,53.36,1.38a252.09,252.09,0,0,1,25.83,6.7,94.38,94.38,0,0,0,25.73,3.82,68,68,0,0,0,25.5-4.75,58.25,58.25,0,0,0,21.67-14.57"/><path d="M1703.18,988.21c-5.83,5.36-13.46,8.32-21.08,10.28a82.49,82.49,0,0,1-23.65,1.87,109.66,109.66,0,0,1-11.84-1.2c-3.86-.84-7.81-1.39-11.6-2.53-7.73-2-15-4.33-22.66-5.93-15.1-3.48-30.69-5.21-46-3.54a78,78,0,0,0-22.38,5.58c-7.1,3-13.89,7.14-19,13.1,4.46-6.53,11.21-11.2,18.24-14.79a79.88,79.88,0,0,1,22.77-6.78c15.78-2.19,31.83-.58,47.22,2.88,7.68,1.73,15.29,4.26,22.7,6.28a131,131,0,0,0,22.79,4.22,83.57,83.57,0,0,0,23.1-.83c7.58-1.39,15.15-3.89,21.44-8.61"/><path d="M437.18,649.66c-3.47,19.74-7,39.46-10.22,59.24s-6.54,39.54-9.53,59.34c-6,39.61-11.66,79.28-16.41,119.06-5,39.74-9.2,79.59-12.95,119.48q-2.83,29.91-5.14,59.88c-1.68,20-3,40-4.45,60,.59-20,1.58-40.06,2.64-60.08s2.58-40,4.12-60c3.16-40,7.37-79.86,12.12-119.68,5.05-39.78,10.63-79.5,17.28-119.05s14.06-79,22.54-118.14"/><path d="M1514.83,820c-1.54,12.92-3.35,25.79-5.1,38.68l-5.8,38.57c-4,25.7-8.57,51.31-13.15,76.91-4.91,25.54-9.74,51.09-15.32,76.5l-8.52,38.07c-3,12.66-5.82,25.34-8.9,38,2.26-12.81,4.76-25.57,7.13-38.36l7.51-38.25q7.5-38.26,14.47-76.61c4.88-25.53,9.39-51.13,14-76.7Z"/><path d="M1850.5,828.69c-1.54,12.91-3.34,25.79-5.1,38.68l-5.8,38.57c-4,25.7-8.57,51.31-13.15,76.91-4.91,25.54-9.74,51.09-15.32,76.5l-8.51,38.07c-3,12.66-5.83,25.34-8.91,38,2.27-12.8,4.76-25.56,7.13-38.34l7.51-38.26q7.5-38.26,14.48-76.61c4.88-25.53,9.38-51.13,14-76.71Z"/><path d="M2136.43,833.24c-1.54,12.91-3.35,25.79-5.1,38.67l-5.8,38.57c-4,25.71-8.57,51.31-13.15,76.91-4.91,25.54-9.74,51.1-15.32,76.5l-8.52,38.07c-3,12.66-5.82,25.35-8.9,38,2.26-12.81,4.76-25.57,7.13-38.35l7.51-38.26q7.5-38.25,14.47-76.61c4.88-25.53,9.39-51.12,14-76.7Z"/><path d="M585,837.49c-1,13-2.16,25.92-3.32,38.87l-4,38.8c-2.81,25.85-6.2,51.65-9.59,77.43-3.72,25.74-7.37,51.49-11.78,77.13l-6.75,38.42c-2.39,12.78-4.65,25.58-7.15,38.34,1.67-12.9,3.58-25.75,5.36-38.63l5.74-38.57q5.73-38.57,10.93-77.19c3.69-25.73,7-51.5,10.43-77.27Z"/><path d="M1006.27,772.06c1.68,18,2.91,36,3.93,54s1.68,36,2.31,54c.37,18,.82,36.06.72,54.1s-.33,36.06-.82,54.08c-.66-18-1-36-1.31-54.06s-.76-36-1.36-54c-.4-18-1.07-36-1.66-54Z"/><path d="M739.32,796.29c-2.59,5.06-5.17,10.07-7.44,15.23s-4.38,10.34-6.21,15.64-3.39,10.68-4.84,16.12-2.48,11-3.54,16.57a91.68,91.68,0,0,1,1.46-17A106.1,106.1,0,0,1,730,810.58a94.12,94.12,0,0,1,9.34-14.29"/><path d="M1374.52,800.33c-2.59,5.07-5.17,10.08-7.44,15.23s-4.39,10.35-6.21,15.65-3.39,10.68-4.84,16.12-2.48,11-3.55,16.57a92.65,92.65,0,0,1,1.46-17,109.18,109.18,0,0,1,4.31-16.58,105.86,105.86,0,0,1,6.93-15.67,94,94,0,0,1,9.34-14.3"/><path d="M702.68,1087.19a70.9,70.9,0,0,1-5.49,23.54,69.22,69.22,0,0,1-13.05,20.63,66.94,66.94,0,0,1-19.52,14.71,74.82,74.82,0,0,1-11.37,4.4,66.67,66.67,0,0,1-11.9,2.15,92.89,92.89,0,0,0,21.92-9,79.84,79.84,0,0,0,18.15-14.7,83.6,83.6,0,0,0,13.2-19.31,85.16,85.16,0,0,0,4.62-10.91,103,103,0,0,0,3.44-11.46"/><path d="M2001.37,788.38c-2.59,5.07-5.17,10.08-7.43,15.23s-4.39,10.35-6.21,15.65-3.4,10.68-4.85,16.12-2.48,11-3.54,16.57a92.65,92.65,0,0,1,1.46-17,108,108,0,0,1,4.31-16.58,106.86,106.86,0,0,1,6.92-15.67,94.21,94.21,0,0,1,9.34-14.3"/><path d="M1959.46,1078.31a70.85,70.85,0,0,1-5.49,23.54,69,69,0,0,1-13.06,20.63,66.64,66.64,0,0,1-19.51,14.71,76.3,76.3,0,0,1-11.37,4.4,66.62,66.62,0,0,1-11.91,2.15,92.37,92.37,0,0,0,21.93-9,79.62,79.62,0,0,0,18.15-14.7,83.6,83.6,0,0,0,13.2-19.31,84.56,84.56,0,0,0,4.62-10.91,102.39,102.39,0,0,0,3.44-11.46"/><path d="M2355.28,873.51a171.89,171.89,0,0,1-17.85,50.09A163.29,163.29,0,0,1,2304.88,966a123,123,0,0,1-10.27,8.65c-3.42,2.91-7.29,5.19-11,7.76A141,141,0,0,1,2260,994.93a167,167,0,0,1-25.46,8.18,159,159,0,0,1-26.38,3.65,182.42,182.42,0,0,0,50.7-14.43,162.33,162.33,0,0,0,43.51-29.08c1.6-1.5,3.26-2.93,4.81-4.48l4.51-4.77c3.12-3.09,5.72-6.64,8.58-10A197.26,197.26,0,0,0,2335,922.22a184.33,184.33,0,0,0,11.69-23.66,199.06,199.06,0,0,0,8.63-25"/><path d="M1221.18,861.47l-6.71,38-7,37.93-14.42,75.78-3.8,18.93a155.54,155.54,0,0,0-3.19,18.87,126.07,126.07,0,0,0,1.86,38,78.41,78.41,0,0,0,6.38,17.88l2.34,4.14c.85,1.33,1.82,2.58,2.73,3.88a48.31,48.31,0,0,0,6.33,7.07c9.34,8.68,22.11,13.23,34.92,13.8-12.81-.12-25.9-4.2-35.82-12.79a48.24,48.24,0,0,1-6.66-7.12c-1-1.32-2-2.6-2.9-4l-2.48-4.21a80,80,0,0,1-6.91-18.22,121.68,121.68,0,0,1-2.29-38.71,154.69,154.69,0,0,1,3.1-19.17l3.67-18.91L1205.39,937l7.76-37.79Z"/><path d="M1718.06,783.11a222.68,222.68,0,0,1,6.34-45.71,107.82,107.82,0,0,1,7.84-21.86,42.12,42.12,0,0,1,6.55-9.72c2.71-2.78,6.42-5.08,10.35-4.84-3.89.42-7.05,2.81-9.33,5.74a41.22,41.22,0,0,0-5.65,9.73,144.41,144.41,0,0,0-7.07,21.64c-1.92,7.38-3.45,14.86-5,22.37s-2.76,15.07-4.07,22.65"/><path d="M1551.05,784.68a206,206,0,0,1,2-23,202.11,202.11,0,0,1,4.36-22.71,108.4,108.4,0,0,1,7.83-21.86,42.71,42.71,0,0,1,6.55-9.73c2.72-2.78,6.43-5.07,10.35-4.83a14,14,0,0,0-9.33,5.74,41.33,41.33,0,0,0-5.64,9.73,144,144,0,0,0-7.08,21.63c-1.91,7.39-3.45,14.87-5,22.38s-2.76,15.07-4.07,22.65"/><path d="M745.77,485.74a70.83,70.83,0,0,1,23.36,27.13,58,58,0,0,1,5.06,35.82,61.78,61.78,0,0,1-16.6,32.17,67.66,67.66,0,0,1-14.2,11.28,72.07,72.07,0,0,1-16.58,7c11-4.6,21.07-11.27,28.68-20.16a63.74,63.74,0,0,0,15.07-30.89,59.25,59.25,0,0,0-4-34,71.66,71.66,0,0,0-8.81-15.18,82.62,82.62,0,0,0-12-13.12"/></svg>